<svg width="76" height="29" viewBox="0 0 76 29" fill="none" xmlns="http://www.w3.org/2000/svg">
<path d="M56.4987 17.5258V15.0644L54.5466 12.4614L51.3422 11.4697L48.1746 12.4614L46.2041 15.0644V18.2873L48.1562 20.8904L51.3422 21.882L54.5466 20.8904L56.0015 19.5977L54.3809 18.4821L53.3127 19.2966L51.3422 19.9164L49.3533 19.2966L48.1378 17.6852V17.5258H56.4987ZM49.3717 14.0551L51.3606 13.4353L53.3311 14.0551L54.565 15.6842V15.8613H48.1562V15.6842L49.3717 14.0551Z" fill="#2B2B2D"/>
<path d="M44.955 19.5786H39.3197L44.9734 12.212V11.9287H35.5996V13.6995H41.4375L35.618 21.1369V21.3848H44.955V19.5786Z" fill="#2B2B2D"/>
<path d="M31.1045 21.3848V11.9287H33.1303V21.3848H31.1045Z" fill="#2B2B2D"/>
<path d="M32.1027 7.09894L30.6182 8.52637L32.1027 9.9538L33.5872 8.52637L32.1027 7.09894Z" fill="#2B2B2D"/>
<path d="M26.9615 11.9487L26.759 12.9226L26.4275 12.4799L23.2231 11.4883L20.0555 12.4799L18.085 15.083V18.3058L20.0371 20.9089L23.2231 21.9006L26.4275 20.9089L26.7405 20.5016L26.8879 21.4224H28.5085V11.9664L26.9615 11.9487ZM26.4275 17.6861L25.1936 19.3152L23.2231 19.935L21.2341 19.3152L20.0187 17.7038V15.7028L21.2341 14.0914L23.2231 13.4716L25.1936 14.0914L26.4275 15.7205V17.6861Z" fill="#2B2B2D"/>
<path d="M13.9385 21.4038V8.54785H15.9643V21.4038H13.9385Z" fill="#2B2B2D"/>
<path d="M9.96312 18.8539L8.9134 19.5799H2.11785V15.4717H8.82132L9.96312 16.2685L10.4051 17.5612L9.96312 18.8539ZM11.4917 15.1883L10.4051 14.4269L10.7919 14.1613L11.5101 12.0186L10.7919 9.87595L8.89499 8.54785H0V21.3861H9.39222L11.4917 19.9164L12.2836 17.5435L11.4917 15.1883ZM2.11785 10.3364H8.30567L9.22648 10.9738L9.57638 12.0186L9.22648 13.0634L8.30567 13.7009H2.11785V10.3364Z" fill="#2B2B2D"/>
<path d="M69.4808 21.6973L68.3282 18.7242H62.4366L61.3053 21.6973H59L64.3259 8H66.3649L71.8211 21.6973H69.4808ZM65.3639 10.9409L63.1927 16.7119H67.574L65.3639 10.9409Z" fill="#FF5C5C"/>
<path d="M73.7676 21.6973V8H75.9388V21.6973H73.7676Z" fill="#FF5C5C"/>
</svg>
