<svg width="120" height="25" viewBox="0 0 120 25" fill="none" xmlns="http://www.w3.org/2000/svg">
<path d="M90.0001 16.9076V12.9159L86.8905 8.69456L81.7861 7.08643L76.7404 8.69456L73.6016 12.9159V18.1424L76.7111 22.3638L81.7861 23.9719L86.8905 22.3638L89.208 20.2674L86.6265 18.4583L84.925 19.7792L81.7861 20.7843L78.6179 19.7792L76.6818 17.166V16.9076H90.0001ZM78.6472 11.2791L81.8155 10.274L84.9544 11.2791L86.9198 13.921V14.2082H76.7111V13.921L78.6472 11.2791Z" fill="#2B2B2D"/>
<path d="M70.9024 20.2382H61.9258L70.9317 8.29198V7.83252H56V10.7042H65.2993L56.0293 22.7653V23.1673H70.9024V20.2382Z" fill="#2B2B2D"/>
<path d="M49.5469 23.1673V7.83252H52.7738V23.1673H49.5469Z" fill="#2B2B2D"/>
<path d="M51.1382 9.1243e-05L48.7734 2.31494L51.1382 4.62979L53.5029 2.31494L51.1382 9.1243e-05Z" fill="#2B2B2D"/>
<path d="M42.9483 7.86235L42.6256 9.44178L42.0975 8.72386L36.9932 7.11572L31.9475 8.72386L28.8086 12.9452V18.1717L31.9181 22.3931L36.9932 24.0012L42.0975 22.3931L42.5962 21.7326L42.8309 23.2259H45.4124V7.89108L42.9483 7.86235ZM42.0975 17.1666L40.1321 19.8086L36.9932 20.8136L33.8249 19.8086L31.8888 17.1953V13.9503L33.8249 11.3371L36.9932 10.332L40.1321 11.3371L42.0975 13.979V17.1666Z" fill="#2B2B2D"/>
<path d="M22.2031 23.1975V2.34912H25.43V23.1975H22.2031Z" fill="#2B2B2D"/>
<path d="M15.8705 19.0613L14.1983 20.2387H3.37357V13.5764H14.0517L15.8705 14.8687L16.5745 16.965L15.8705 19.0613ZM18.3053 13.117L16.5745 11.8821L17.1906 11.4514L18.3346 7.97663L17.1906 4.50191L14.169 2.34814H0V23.1678H14.9611L18.3053 20.7843L19.5667 16.9363L18.3053 13.117ZM3.37357 5.24854H13.2303L14.697 6.28233L15.2544 7.97663L14.697 9.67093L13.2303 10.7047H3.37357V5.24854Z" fill="#2B2B2D"/>
<path opacity="0.4" d="M109.695 24.1498L107.859 19.342H98.4742L96.6722 24.1498H93L101.484 2H104.732L113.423 24.1498H109.695ZM103.137 6.75569L99.6787 16.0879H106.658L103.137 6.75569Z" fill="#2B2B2D"/>
<path opacity="0.4" d="M116.522 24.1498V2H119.981V24.1498H116.522Z" fill="#2B2B2D"/>
</svg>
