<svg width="94" height="95" viewBox="0 0 94 95" fill="none" xmlns="http://www.w3.org/2000/svg">
<path fill-rule="evenodd" clip-rule="evenodd" d="M43.6428 94.1392L50.3572 94.1392L50.3572 64.4944L61.4938 91.9806L67.7192 89.4725L56.294 61.2743L77.8602 82.7793L82.6079 78.045L61.9377 57.4334L88.7247 69.1038L91.4128 62.9685L63.0691 50.6199L94 50.6199L94 43.9246L63.0691 43.9246L91.4128 31.5761L88.7247 25.4408L61.9377 37.1111L82.6079 16.4995L77.8601 11.7655L56.294 33.2703L67.7192 5.07194L61.4938 2.5641L50.3572 30.0501L50.3572 0.405407L43.6428 0.405408L43.6428 30.0501L32.5061 2.5641L26.281 5.07194L37.7058 33.2703L16.1398 11.7655L11.3923 16.4995L32.0625 37.1111L5.27529 25.4408L2.58736 31.5761L30.9307 43.9246L3.22703e-06 43.9246L3.81402e-06 50.6199L30.9312 50.6199L2.58736 62.9685L5.27529 69.1038L32.0625 57.4335L11.3923 78.0451L16.1398 82.7793L37.7058 61.2743L26.281 89.4725L32.5061 91.9806L43.6428 64.4944L43.6428 94.1392Z" fill="white"/>
</svg>
