<svg width="140" height="280" viewBox="0 0 140 280" fill="none" xmlns="http://www.w3.org/2000/svg">
<circle cx="70" cy="70" r="70" fill="#FF5C5C"/>
<g clip-path="url(#clip0_1319_7758)">
<rect y="139.884" width="139.908" height="16.2446" fill="#FF5C5C"/>
<rect y="163.168" width="139.908" height="12.4542" fill="#FF5C5C"/>
<rect y="184.828" width="139.908" height="9.74676" fill="#FF5C5C"/>
<rect y="207.029" width="139.908" height="6.49784" fill="#FF5C5C"/>
<rect y="225.981" width="139.908" height="5.41487" fill="#FF5C5C"/>
<rect y="251.43" width="139.908" height="3.79041" fill="#FF5C5C"/>
<rect y="276.784" width="139.908" height="3.00878" fill="#FF5C5C"/>
</g>
<path fill-rule="evenodd" clip-rule="evenodd" d="M67.8571 100L72.1429 100L72.1429 81.0241L79.2514 98.6183L83.225 97.0128L75.9323 78.9628L89.698 92.7285L92.7284 89.698L79.5347 76.5043L96.6328 83.9746L98.3486 80.0473L80.2568 72.1429L100 72.1429L100 67.8571L80.2569 67.8571L98.3486 59.9527L96.6328 56.0254L79.5347 63.4957L92.7284 50.302L89.698 47.2717L75.9323 61.0372L83.225 42.9871L79.2514 41.3818L72.1429 58.9759L72.1429 40L67.8571 40L67.8571 58.9759L60.7486 41.3818L56.7751 42.9871L64.0675 61.0372L50.302 47.2717L47.2717 50.302L60.4654 63.4957L43.3672 56.0254L41.6515 59.9527L59.743 67.8571L40 67.8571L40 72.1429L59.7433 72.1429L41.6515 80.0473L43.3672 83.9746L60.4654 76.5043L47.2717 89.698L50.302 92.7285L64.0675 78.9629L56.7751 97.0128L60.7486 98.6183L67.8571 81.0241L67.8571 100Z" fill="#E5E5E5"/>
<defs>
<clipPath id="clip0_1319_7758">
<rect y="139.884" width="140" height="140" rx="70" fill="white"/>
</clipPath>
</defs>
</svg>
