<svg width="141" height="71" viewBox="0 0 141 71" fill="none" xmlns="http://www.w3.org/2000/svg">
<g clip-path="url(#clip0_1319_8226)">
<rect y="0.000488281" width="70.4538" height="8.18032" fill="#FF5C5C"/>
<rect y="11.7253" width="70.4538" height="6.27158" fill="#FF5C5C"/>
<rect y="22.6328" width="70.4538" height="4.90819" fill="#FF5C5C"/>
<rect y="33.8125" width="70.4538" height="3.27213" fill="#FF5C5C"/>
<rect y="43.3562" width="70.4538" height="2.72677" fill="#FF5C5C"/>
<rect y="56.1719" width="70.4538" height="1.90874" fill="#FF5C5C"/>
<rect y="68.9392" width="70.4538" height="1.51514" fill="#FF5C5C"/>
</g>
<circle cx="105.75" cy="35.25" r="35.25" transform="rotate(90 105.75 35.25)" fill="#FF5C5C"/>
<path fill-rule="evenodd" clip-rule="evenodd" d="M104.929 50L107.071 50L107.071 40.512L110.626 49.3091L112.613 48.5064L108.966 39.4814L115.849 46.3642L117.364 44.849L110.767 38.2521L119.316 41.9873L120.174 40.0237L111.128 36.0714L121 36.0714L121 33.9286L111.128 33.9286L120.174 29.9764L119.316 28.0127L110.767 31.7479L117.364 25.151L115.849 23.6359L108.966 30.5186L112.613 21.4936L110.626 20.6909L107.071 29.488L107.071 20L104.929 20L104.929 29.488L101.374 20.6909L99.3875 21.4936L103.034 30.5186L96.151 23.6359L94.6358 25.151L101.233 31.7479L92.6836 28.0127L91.8258 29.9764L100.871 33.9286L91 33.9286L91 36.0714L100.872 36.0714L91.8258 40.0237L92.6836 41.9873L101.233 38.2521L94.6359 44.849L96.151 46.3642L103.034 39.4814L99.3876 48.5064L101.374 49.3091L104.929 40.512L104.929 50Z" fill="#E5E5E5"/>
<defs>
<clipPath id="clip0_1319_8226">
<rect y="0.000488281" width="70.5" height="70.5" rx="35.25" fill="white"/>
</clipPath>
</defs>
</svg>
