<svg width="140" height="70" viewBox="0 0 140 70" fill="none" xmlns="http://www.w3.org/2000/svg">
<circle cx="105" cy="35.0005" r="35" transform="rotate(90 105 35.0005)" fill="#2B2B2D"/>
<path opacity="0.9" fill-rule="evenodd" clip-rule="evenodd" d="M119.831 33.9412L119.831 36.0599L107.557 36.0599L116.236 44.7382L114.738 46.2363L106.059 37.558L106.059 49.8311L103.941 49.8311L103.941 37.558L95.2623 46.2363L93.7643 44.7382L102.443 36.0599L90.1696 36.0599L90.1696 33.9412L102.443 33.9412L93.7643 25.2628L95.2623 23.7648L103.941 32.4432L103.941 20.17L106.059 20.17L106.059 32.4432L114.738 23.7648L116.236 25.2628L107.558 33.9412L119.831 33.9412Z" fill="#E5E5E5"/>
<g clip-path="url(#clip0_1319_8130)">
<rect width="69.9541" height="8.1223" fill="#2B2B2D"/>
<rect y="11.6421" width="69.9541" height="6.2271" fill="#2B2B2D"/>
<rect y="22.4717" width="69.9541" height="4.87338" fill="#2B2B2D"/>
<rect y="33.5718" width="69.9541" height="3.24892" fill="#2B2B2D"/>
<rect y="43.0483" width="69.9541" height="2.70743" fill="#2B2B2D"/>
<rect y="55.7729" width="69.9541" height="1.8952" fill="#2B2B2D"/>
<rect y="68.4502" width="69.9541" height="1.50439" fill="#2B2B2D"/>
</g>
<defs>
<clipPath id="clip0_1319_8130">
<rect width="70" height="70" rx="35" fill="white"/>
</clipPath>
</defs>
</svg>
