<svg width="342" height="467" viewBox="0 0 342 467" fill="none" xmlns="http://www.w3.org/2000/svg">
<g clip-path="url(#clip0_1319_8200)">
<path fill-rule="evenodd" clip-rule="evenodd" d="M-93.0695 166.83C-65.5843 82.5422 13.2848 25.4685 102.062 25.4685C160.037 25.2005 215.386 49.6686 254.194 92.757L254.505 92.6421C341.248 74.2993 430.113 114.06 474.502 190.938C503.721 241.008 510.204 301.173 492.29 356.323L492.546 356.535C551.804 422.48 561.8 519.315 517.411 596.193C488.656 646.531 439.79 682.227 383.068 694.289L383.012 694.615C355.527 778.903 276.658 835.977 187.88 835.977C129.906 836.245 74.5562 811.777 35.7486 768.688L35.4369 768.804C-51.3064 787.146 -140.172 747.386 -184.56 670.508C-213.78 620.438 -220.263 560.273 -202.349 505.123L-202.603 504.912C-261.861 438.966 -271.858 342.132 -227.469 265.254C-198.714 214.916 -149.848 179.22 -93.1256 167.158L-93.0695 166.83ZM-49.5467 411.041L-49.577 230.556C-49.5982 213.089 -46.5437 195.84 -40.7248 179.511L-41.2415 179.387C-20.3462 120.481 35.8952 78.2543 102.062 78.1484L101.793 78.4174C137.364 78.4174 171.56 90.6343 198.981 113.255L33.2661 208.924C31.3992 210.002 29.7038 211.268 28.1954 212.692C22.7422 217.635 19.6064 224.772 19.6064 232.422V450.898L-49.5467 411.041ZM-102.979 225.219V416.555C-102.979 418.706 -102.731 420.803 -102.253 422.817C-100.702 430.017 -96.0872 436.307 -89.4569 440.134L99.7624 549.372L30.6664 589.328L-125.666 499.111C-140.804 490.396 -154.216 479.126 -165.449 465.923L-165.815 466.308C-206.384 418.76 -214.835 348.945 -181.844 291.594L-181.745 291.962C-163.959 261.158 -136.281 237.655 -102.979 225.219ZM144.97 523.443L64.6678 477.083V384.363L144.971 338.003L225.275 384.363V477.082L144.97 523.443ZM-156.989 542.686L8.7261 638.355C10.598 639.436 12.5476 640.272 14.5411 640.867C21.5439 643.111 29.2866 642.257 35.9074 638.434L225.127 529.196L225.184 609.009L68.8825 699.278C53.7657 708.03 37.2992 714.009 20.2476 717.135L20.3978 717.644C-41.0675 729.003 -105.76 701.413 -138.935 644.168L-138.567 644.266C-156.353 613.463 -162.87 577.743 -156.989 542.686ZM188.149 783.028C152.578 783.028 118.383 770.811 90.9608 748.19L256.675 652.522C258.535 651.448 260.225 650.187 261.729 648.769C267.194 643.826 270.336 636.682 270.336 629.023V410.547L339.489 450.405L339.519 630.891C339.541 648.358 336.486 665.607 330.667 681.935L331.183 682.06C310.288 740.965 254.047 783.191 187.88 783.297L188.149 783.028ZM392.921 636.228V444.89C392.921 442.735 392.672 440.634 392.193 438.616C390.639 431.422 386.026 425.138 379.399 421.312L190.18 312.074L259.276 272.119L415.608 362.335C430.746 371.05 444.158 382.32 455.39 395.523L455.757 395.138C496.327 442.686 504.778 512.502 471.786 569.853L471.688 569.485C453.902 600.289 426.223 623.792 392.921 636.228ZM428.509 217.18C446.295 247.983 452.811 283.703 446.931 318.76L281.216 223.092C279.354 222.017 277.414 221.183 275.431 220.589C268.42 218.332 260.665 219.183 254.034 223.011L64.8147 332.249L64.7579 252.437L221.06 162.167C236.177 153.416 252.643 147.436 269.695 144.311L269.545 143.801C331.01 132.443 395.701 160.033 428.876 217.278L428.509 217.18Z" fill="url(#paint0_linear_1319_8200)"/>
</g>
<defs>
<linearGradient id="paint0_linear_1319_8200" x1="144.971" y1="-1340.5" x2="144.971" y2="509.5" gradientUnits="userSpaceOnUse">
<stop stop-color="white"/>
<stop offset="1" stop-color="#D9D9D9" stop-opacity="0"/>
<stop offset="1" stop-color="white"/>
</linearGradient>
<clipPath id="clip0_1319_8200">
<rect width="342" height="467" fill="white"/>
</clipPath>
</defs>
</svg>
