<svg width="27" height="26" viewBox="0 0 27 26" fill="none" xmlns="http://www.w3.org/2000/svg">
<g clip-path="url(#clip0_1218_870)">
<path d="M21.2787 16.2363C21.9631 14.6103 22.1206 12.8107 21.7292 11.0905C21.3377 9.3703 20.417 7.81605 19.0965 6.64625C17.776 5.47646 16.122 4.74994 14.3672 4.56885C12.6124 4.38775 10.8449 4.76119 9.31331 5.63665L8.26706 3.80466C9.86768 2.88984 11.6802 2.41075 13.5238 2.41519C15.3674 2.41963 17.1777 2.90745 18.7739 3.82997C23.5094 6.56372 25.3235 12.4172 23.116 17.2983L24.5314 18.1147L20.1386 20.4497L19.9646 15.4779L21.2787 16.2363ZM5.72209 9.69087C5.03775 11.3169 4.88023 13.1165 5.27166 14.8367C5.66309 16.5568 6.58379 18.1111 7.90432 19.2809C9.22485 20.4507 10.8788 21.1772 12.6336 21.3583C14.3885 21.5394 16.1559 21.1659 17.6875 20.2905L18.7338 22.1225C17.1331 23.0373 15.3206 23.5164 13.477 23.5119C11.6334 23.5075 9.82318 23.0197 8.22698 22.0972C3.49143 19.3634 1.67737 13.5099 3.88483 8.6288L2.46838 7.81353L6.86116 5.47845L7.03518 10.4502L5.72104 9.69193L5.72209 9.69087Z" fill="white"/>
</g>
<defs>
<clipPath id="clip0_1218_870">
<rect width="25.3125" height="25.3125" fill="white" transform="translate(0.84375 0.307251)"/>
</clipPath>
</defs>
</svg>
