<svg width="27" height="26" viewBox="0 0 27 26" fill="none" xmlns="http://www.w3.org/2000/svg">
<path d="M16.7364 7.29181L16.7365 7.29183L17.5106 7.48538V7.85653L16.7365 8.05007L16.7364 8.05009C15.9923 8.23618 15.3127 8.62097 14.7704 9.16333C14.228 9.70569 13.8432 10.3852 13.6571 11.1293L13.6571 11.1294L13.4636 11.9036H13.0924L12.8989 11.1294L12.8989 11.1293C12.7128 10.3852 12.328 9.70569 11.7856 9.16333C11.2433 8.62097 10.5637 8.23618 9.81963 8.05009L9.81956 8.05007L9.04538 7.85653V7.48538L9.81956 7.29183L9.82008 7.2917C10.5638 7.10527 11.2429 6.72033 11.7849 6.17799C12.3267 5.63574 12.7112 4.9565 12.8971 4.2128C12.8971 4.21269 12.8972 4.21257 12.8972 4.21246L13.0917 3.43833H13.4636L13.6571 4.2125L13.6571 4.21257C13.8432 4.95667 14.228 5.63621 14.7704 6.17857C15.3127 6.72093 15.9923 7.10572 16.7364 7.29181Z" stroke="white" stroke-width="1.69306"/>
<path d="M9.3814 18.6155L9.38147 18.6156L10.1557 18.8091V19.1803L9.38147 19.3738L9.3814 19.3738C8.63731 19.5599 7.95777 19.9447 7.41541 20.4871C6.87305 21.0294 6.48826 21.709 6.30216 22.4531L6.30214 22.4531L6.1086 23.2273H5.73745L5.54391 22.4531L5.54389 22.4531C5.3578 21.709 4.97301 21.0294 4.43065 20.4871C3.88829 19.9447 3.20874 19.5599 2.46465 19.3738L2.46458 19.3738L1.6904 19.1803V18.8091L2.46458 18.6156L2.4651 18.6154C3.20881 18.429 3.88791 18.0441 4.42987 17.5017C4.97175 16.9595 5.35619 16.2802 5.54214 15.5365C5.54217 15.5364 5.5422 15.5363 5.54222 15.5362L5.73668 14.7621H6.1086L6.30214 15.5362L6.30216 15.5363C6.48826 16.2804 6.87305 16.9599 7.41541 17.5023C7.95777 18.0447 8.63731 18.4295 9.3814 18.6155Z" stroke="white" stroke-width="1.69306"/>
<path d="M24.2857 18.6155L24.2858 18.6156L25.0599 18.8091V19.1803L24.2858 19.3738L24.2857 19.3738C23.5416 19.5599 22.8621 19.9447 22.3197 20.4871C21.7773 21.0294 21.3926 21.709 21.2065 22.4531L21.2064 22.4531L21.0129 23.2273H20.6417L20.4482 22.4531L20.4482 22.4531C20.2621 21.709 19.8773 21.0294 19.3349 20.4871C18.7926 19.9447 18.113 19.5599 17.3689 19.3738L17.3689 19.3738L16.5947 19.1803V18.8091L17.3689 18.6156L17.3694 18.6154C18.1131 18.429 18.7922 18.0441 19.3342 17.5017C19.876 16.9595 20.2605 16.2802 20.4464 15.5366C20.4465 15.5364 20.4465 15.5363 20.4465 15.5362L20.641 14.7621H21.0129L21.2064 15.5362L21.2065 15.5363C21.3926 16.2804 21.7773 16.9599 22.3197 17.5023C22.8621 18.0447 23.5416 18.4295 24.2857 18.6155Z" stroke="white" stroke-width="1.69306"/>
</svg>
