<svg width="225" height="225" viewBox="0 0 225 225" fill="none" xmlns="http://www.w3.org/2000/svg">
<path fill-rule="evenodd" clip-rule="evenodd" d="M104.464 225L120.536 225L120.536 153.84L147.193 219.818L162.094 213.798L134.746 146.111L186.367 197.732L197.732 186.367L148.255 136.891L212.373 164.905L218.807 150.177L150.963 120.536L225 120.536L225 104.464L150.963 104.464L218.807 74.8226L212.373 60.0952L148.255 88.1089L197.732 38.6325L186.367 27.2689L134.746 78.8895L162.094 11.2016L147.193 5.18175L120.536 71.1596L120.536 -6.12624e-06L104.464 -4.72121e-06L104.464 71.1596L77.8073 5.18176L62.9066 11.2016L90.2531 78.8895L38.6325 27.2689L27.2689 38.6325L76.7453 88.1089L12.627 60.0953L6.19314 74.8226L74.0363 104.464L4.72121e-06 104.464L6.12623e-06 120.536L74.0374 120.536L6.19315 150.178L12.627 164.905L76.7453 136.891L27.2689 186.368L38.6325 197.732L90.2531 146.111L62.9066 213.798L77.8073 219.818L104.464 153.84L104.464 225Z" fill="#2B2B2D"/>
<g clip-path="url(#clip0_2904_515)">
<path fill-rule="evenodd" clip-rule="evenodd" d="M104.464 225L120.536 225L120.536 153.84L147.193 219.818L162.094 213.798L134.746 146.111L186.367 197.732L197.732 186.367L148.255 136.891L212.373 164.905L218.807 150.177L150.963 120.536L225 120.536L225 104.464L150.963 104.464L218.807 74.8226L212.373 60.0952L148.255 88.1089L197.732 38.6325L186.367 27.2689L134.746 78.8895L162.094 11.2016L147.193 5.18175L120.536 71.1596L120.536 -6.12624e-06L104.464 -4.72121e-06L104.464 71.1596L77.8072 5.18176L62.9066 11.2016L90.2531 78.8895L38.6325 27.2689L27.2689 38.6325L76.7453 88.1089L12.627 60.0953L6.19315 74.8227L74.0362 104.464L4.72121e-06 104.464L6.12623e-06 120.536L74.0374 120.536L6.19315 150.178L12.627 164.905L76.7453 136.891L27.2689 186.368L38.6325 197.732L90.2531 146.111L62.9066 213.798L77.8073 219.818L104.464 153.84L104.464 225Z" fill="#E5E5E5"/>
</g>
<defs>
<clipPath id="clip0_2904_515">
<path d="M0 0H121V107C121 114.732 114.732 121 107 121H0V0Z" fill="white"/>
</clipPath>
</defs>
</svg>
