<svg width="71" height="71" viewBox="0 0 71 71" fill="none" xmlns="http://www.w3.org/2000/svg">
<rect width="70.0162" height="70.0162" rx="9.33549" fill="#FF5C5C"/>
<g clip-path="url(#clip0_989_700)">
<path d="M35.3971 24.8704C41.6892 24.8704 46.9241 29.3981 48.0222 35.3728C46.9252 41.3475 41.6892 45.8752 35.3971 45.8752C29.1049 45.8752 23.8701 41.3475 22.772 35.3728C23.8689 29.3981 29.1049 24.8704 35.3971 24.8704ZM35.3971 43.5413C37.777 43.5408 40.0863 42.7325 41.9469 41.2485C43.8076 39.7646 45.1094 37.693 45.6393 35.3728C45.1074 33.0544 43.8048 30.9851 41.9443 29.5031C40.0838 28.0211 37.7756 27.2142 35.3971 27.2142C33.0185 27.2142 30.7103 28.0211 28.8498 29.5031C26.9894 30.9851 25.6867 33.0544 25.1549 35.3728C25.6848 37.693 26.9866 39.7646 28.8472 41.2485C30.7079 42.7325 33.0171 43.5408 35.3971 43.5413ZM35.3971 40.624C34.0044 40.624 32.6687 40.0708 31.6839 39.086C30.6991 38.1012 30.1458 36.7655 30.1458 35.3728C30.1458 33.9801 30.6991 32.6444 31.6839 31.6596C32.6687 30.6748 34.0044 30.1216 35.3971 30.1216C36.7898 30.1216 38.1254 30.6748 39.1102 31.6596C40.095 32.6444 40.6483 33.9801 40.6483 35.3728C40.6483 36.7655 40.095 38.1012 39.1102 39.086C38.1254 40.0708 36.7898 40.624 35.3971 40.624ZM35.3971 38.2901C36.1708 38.2901 36.9128 37.9828 37.4599 37.4357C38.007 36.8886 38.3144 36.1465 38.3144 35.3728C38.3144 34.5991 38.007 33.857 37.4599 33.3099C36.9128 32.7628 36.1708 32.4555 35.3971 32.4555C34.6233 32.4555 33.8813 32.7628 33.3342 33.3099C32.7871 33.857 32.4797 34.5991 32.4797 35.3728C32.4797 36.1465 32.7871 36.8886 33.3342 37.4357C33.8813 37.9828 34.6233 38.2901 35.3971 38.2901Z" fill="white"/>
</g>
<defs>
<clipPath id="clip0_989_700">
<rect width="28.0065" height="28.0065" fill="white" transform="translate(21.3938 21.3696)"/>
</clipPath>
</defs>
</svg>
