<svg width="27" height="27" viewBox="0 0 27 27" fill="none" xmlns="http://www.w3.org/2000/svg">
<g clip-path="url(#clip0_1218_817)">
<path d="M5.06244 19.8972V15.9949C5.06244 15.5753 4.89576 15.1729 4.59907 14.8762C4.30238 14.5795 3.89999 14.4128 3.48041 14.4128H2.95306V12.7253H3.48041C3.68816 12.7253 3.89388 12.6844 4.08582 12.6049C4.27777 12.5254 4.45217 12.4089 4.59907 12.262C4.74598 12.1151 4.86251 11.9407 4.94201 11.7487C5.02152 11.5568 5.06244 11.3511 5.06244 11.1433V7.24097C5.06244 6.40181 5.39579 5.59701 5.98917 5.00364C6.58255 4.41026 7.38734 4.0769 8.2265 4.0769H9.28119V6.18628H8.2265C7.94678 6.18628 7.67852 6.2974 7.48072 6.49519C7.28293 6.69298 7.17181 6.96125 7.17181 7.24097V11.5652C7.17192 12.0092 7.03191 12.442 6.77171 12.8018C6.51151 13.1616 6.1444 13.4301 5.72267 13.5691C6.1444 13.7081 6.51151 13.9766 6.77171 14.3364C7.03191 14.6962 7.17192 15.129 7.17181 15.573V19.8972C7.17181 20.1769 7.28293 20.4452 7.48072 20.643C7.67852 20.8408 7.94678 20.9519 8.2265 20.9519H9.28119V23.0613H8.2265C7.38734 23.0613 6.58255 22.7279 5.98917 22.1345C5.39579 21.5412 5.06244 20.7364 5.06244 19.8972ZM21.9374 15.9949V19.8972C21.9374 20.7364 21.6041 21.5412 21.0107 22.1345C20.4173 22.7279 19.6125 23.0613 18.7734 23.0613H17.7187V20.9519H18.7734C19.0531 20.9519 19.3214 20.8408 19.5192 20.643C19.7169 20.4452 19.8281 20.1769 19.8281 19.8972V15.573C19.828 15.129 19.968 14.6962 20.2282 14.3364C20.4884 13.9766 20.8555 13.7081 21.2772 13.5691C20.8555 13.4301 20.4884 13.1616 20.2282 12.8018C19.968 12.442 19.828 12.0092 19.8281 11.5652V7.24097C19.8281 6.96125 19.7169 6.69298 19.5192 6.49519C19.3214 6.2974 19.0531 6.18628 18.7734 6.18628H17.7187V4.0769H18.7734C19.6125 4.0769 20.4173 4.41026 21.0107 5.00364C21.6041 5.59701 21.9374 6.40181 21.9374 7.24097V11.1433C21.9374 11.5629 22.1041 11.9653 22.4008 12.262C22.6975 12.5587 23.0999 12.7253 23.5195 12.7253H24.0468V14.4128H23.5195C23.0999 14.4128 22.6975 14.5795 22.4008 14.8762C22.1041 15.1729 21.9374 15.5753 21.9374 15.9949Z" fill="white"/>
</g>
<defs>
<clipPath id="clip0_1218_817">
<rect width="25.3125" height="25.3125" fill="white" transform="translate(0.843689 0.912842)"/>
</clipPath>
</defs>
</svg>
