<svg width="71" height="71" viewBox="0 0 71 71" fill="none" xmlns="http://www.w3.org/2000/svg">
<rect width="70.0162" height="70.0162" rx="9.33549" fill="#FF5C5C"/>
<g clip-path="url(#clip0_989_689)">
<path d="M35.2026 47.0421C28.7576 47.0421 23.5332 41.8177 23.5332 35.3727C23.5332 30.1472 26.9675 25.7245 31.7018 24.2378V26.7164C29.6957 27.531 28.035 29.0173 27.0037 30.921C25.9725 32.8248 25.6347 35.0277 26.0482 37.153C26.4618 39.2782 27.6009 41.1938 29.2708 42.572C30.9406 43.9501 33.0374 44.7053 35.2026 44.7082C37.0624 44.7082 38.8799 44.1528 40.4221 43.1133C41.9643 42.0738 43.161 40.5975 43.8589 38.8735H46.3375C44.8508 43.6078 40.4281 47.0421 35.2026 47.0421ZM46.8136 36.5397H34.0356V23.7617C34.4196 23.7232 34.8093 23.7034 35.2026 23.7034C41.6476 23.7034 46.8719 28.9277 46.8719 35.3727C46.8719 35.766 46.8521 36.1558 46.8136 36.5397ZM36.3695 26.1096V34.2058H44.4657C44.206 32.1492 43.2694 30.2374 41.8037 28.7716C40.3379 27.3059 38.4261 26.3693 36.3695 26.1096Z" fill="white"/>
</g>
<defs>
<clipPath id="clip0_989_689">
<rect width="28.0065" height="28.0065" fill="white" transform="translate(21.1993 21.3696)"/>
</clipPath>
</defs>
</svg>
