<svg width="756" height="444" viewBox="0 0 756 444" fill="none" xmlns="http://www.w3.org/2000/svg">
<path fill-rule="evenodd" clip-rule="evenodd" d="M153.035 133.608C179.011 53.9444 253.547 0.00205866 337.448 0.00205866C392.238 -0.251208 444.547 22.8745 481.223 63.5988L481.517 63.49C563.495 46.1536 647.479 83.733 689.429 156.393C717.044 203.716 723.171 260.58 706.24 312.704L706.482 312.905C762.484 375.232 771.932 466.754 729.981 539.414C702.806 586.99 656.624 620.728 603.018 632.128L602.965 632.436C576.989 712.1 502.453 766.042 418.552 766.042C363.762 766.296 311.453 743.17 274.778 702.446L274.483 702.555C192.505 719.891 108.521 682.311 66.5706 609.651C38.9564 562.329 32.8293 505.465 49.7596 453.341L49.5184 453.14C-6.48453 390.813 -15.9316 299.291 26.0186 226.632C53.1942 179.055 99.3762 145.317 152.982 133.917L153.035 133.608ZM194.167 364.42L194.139 193.837C194.119 177.329 197.005 161.026 202.505 145.593L202.017 145.475C221.764 89.8012 274.916 49.8918 337.448 49.7917L337.194 50.046C370.811 50.046 403.128 61.5926 429.043 82.9723L272.432 173.392C270.671 174.409 269.072 175.603 267.648 176.946C262.489 181.617 259.522 188.366 259.522 195.601V402.091L194.167 364.42ZM143.671 188.793V369.632C143.671 371.665 143.905 373.646 144.356 375.549C145.821 382.354 150.183 388.299 156.449 391.917L335.275 495.162L269.974 532.925L122.23 447.658C107.923 439.421 95.2479 428.77 84.6322 416.291L84.286 416.655C45.945 371.716 37.9585 305.731 69.1377 251.526L69.2308 251.874C86.0395 222.76 112.198 200.546 143.671 188.793ZM378 470.655L302.108 426.839V339.206L378 295.39L453.892 339.206V426.838L378 470.655ZM92.6272 488.843L249.239 579.263C251.005 580.282 252.844 581.072 254.725 581.633C261.346 583.759 268.667 582.952 274.928 579.338L453.753 476.093L453.806 551.527L306.091 636.843C291.805 645.115 276.243 650.766 260.128 653.72L260.27 654.202C202.181 664.937 141.042 638.861 109.69 584.757L110.037 584.85C93.2284 555.736 87.0697 521.976 92.6272 488.843ZM418.806 715.998C385.189 715.998 352.872 704.452 326.957 683.072L483.568 592.652C485.331 591.635 486.931 590.44 488.356 589.095C493.513 584.424 496.478 577.676 496.478 570.443V363.954L561.833 401.624L561.861 572.208C561.881 588.716 558.995 605.019 553.495 620.452L553.983 620.57C534.236 676.243 481.084 716.152 418.552 716.253L418.806 715.998ZM612.329 577.252V396.412C612.329 394.375 612.094 392.39 611.641 390.483C610.173 383.683 605.813 377.743 599.551 374.128L420.725 270.883L486.027 233.12L633.77 318.387C648.077 326.623 660.752 337.275 671.368 349.754L671.714 349.39C710.055 394.329 718.042 460.314 686.862 514.519L686.769 514.171C669.96 543.285 643.802 565.499 612.329 577.252ZM645.963 181.195C662.772 210.308 668.93 244.069 663.373 277.202L506.761 186.783C505.005 185.769 503.176 184.982 501.306 184.421C494.677 182.283 487.342 183.087 481.072 186.707L302.247 289.951L302.194 214.517L449.909 129.201C464.195 120.93 479.757 115.278 495.872 112.324L495.73 111.842C553.819 101.107 614.958 127.184 646.31 181.288L645.963 181.195Z" fill="url(#paint0_linear_778_1014)"/>
<defs>
<linearGradient id="paint0_linear_778_1014" x1="378" y1="90.5" x2="378" y2="554" gradientUnits="userSpaceOnUse">
<stop stop-color="white"/>
<stop offset="1" stop-color="#D9D9D9" stop-opacity="0"/>
<stop offset="1" stop-color="white"/>
</linearGradient>
</defs>
</svg>
