<svg width="480" height="334" viewBox="0 0 480 334" fill="none" xmlns="http://www.w3.org/2000/svg">
<path fill-rule="evenodd" clip-rule="evenodd" d="M97.1653 82.8302C113.658 32.2502 160.982 -1.99892 214.253 -1.99892C249.04 -2.15973 282.252 12.5232 305.538 38.3799L305.725 38.3108C357.775 27.3036 411.098 51.1636 437.733 97.2969C455.266 127.343 459.156 163.447 448.407 196.542L448.56 196.669C484.117 236.242 490.115 294.351 463.48 340.485C446.226 370.692 416.904 392.113 382.868 399.351L382.835 399.547C366.342 450.127 319.017 484.376 265.747 484.376C230.96 484.537 197.748 469.854 174.462 443.997L174.275 444.066C122.225 455.073 68.9022 431.213 42.2671 385.08C24.7343 355.034 20.844 318.93 31.5934 285.835L31.4402 285.708C-4.11716 246.135 -10.1153 188.026 16.5197 141.893C33.7741 111.686 63.096 90.2647 97.1317 83.0266L97.1653 82.8302ZM123.281 229.378L123.263 121.071C123.25 110.589 125.083 100.238 128.574 90.4398L128.264 90.365C140.803 55.0164 174.55 29.6771 214.253 29.6136L214.091 29.775C235.436 29.775 255.954 37.1062 272.408 50.6806L172.973 108.09C171.854 108.736 170.839 109.494 169.935 110.347C166.659 113.313 164.776 117.598 164.776 122.191V253.295L123.281 229.378ZM91.2195 117.868V232.687C91.2195 233.978 91.3682 235.236 91.6548 236.445C92.5854 240.765 95.3547 244.539 99.333 246.836L212.873 312.388L171.412 336.365L77.6062 282.227C68.5227 276.997 60.4749 270.235 53.7348 262.312L53.515 262.543C29.1714 234.01 24.1006 192.114 43.897 157.699L43.956 157.92C54.6283 139.435 71.2365 125.331 91.2195 117.868ZM240 296.828L191.814 269.009V213.369L240 185.549L288.185 213.369V269.008L240 296.828ZM58.8109 308.376L158.247 365.786C159.368 366.433 160.535 366.934 161.728 367.29C165.932 368.641 170.582 368.129 174.557 365.833L288.097 300.281L288.131 348.176L194.343 402.345C185.273 407.597 175.392 411.185 165.16 413.06L165.251 413.366C128.369 420.182 89.5508 403.626 69.6443 369.274L69.8649 369.333C59.1927 350.848 55.2824 329.413 58.8109 308.376ZM265.909 452.602C244.564 452.602 224.046 445.271 207.592 431.696L307.028 374.287C308.148 373.64 309.165 372.88 310.07 372.026C313.343 369.06 315.224 364.777 315.224 360.186V229.081L356.719 252.999L356.737 361.307C356.75 371.788 354.917 382.139 351.426 391.938L351.735 392.012C339.197 427.361 305.45 452.7 265.747 452.763L265.909 452.602ZM388.78 364.509V249.69C388.78 248.399 388.632 247.141 388.345 245.932C387.414 241.612 384.645 237.838 380.667 235.541L267.127 169.989L308.588 146.012L402.394 200.15C411.477 205.38 419.525 212.142 426.265 220.066L426.485 219.835C450.829 248.367 455.9 290.263 436.103 324.678L436.044 324.458C425.372 342.943 408.763 357.047 388.78 364.509ZM410.135 113.044C420.807 131.529 424.718 152.964 421.189 174.001L321.753 116.592C320.638 115.948 319.477 115.449 318.289 115.092C314.081 113.735 309.424 114.245 305.443 116.544L191.903 182.096L191.869 134.201L285.656 80.0321C294.727 74.7804 304.608 71.1922 314.84 69.3167L314.749 69.0109C351.631 62.1949 390.449 78.7512 410.356 113.103L410.135 113.044Z" fill="url(#paint0_linear_991_839)"/>
<defs>
<linearGradient id="paint0_linear_991_839" x1="240" y1="55.4601" x2="240" y2="349.746" gradientUnits="userSpaceOnUse">
<stop stop-color="white"/>
<stop offset="1" stop-color="#D9D9D9" stop-opacity="0"/>
<stop offset="1" stop-color="white"/>
</linearGradient>
</defs>
</svg>
