<svg width="62" height="62" viewBox="0 0 62 62" fill="none" xmlns="http://www.w3.org/2000/svg">
<rect y="61.3848" width="61.3846" height="61.3846" rx="8" transform="rotate(-90 0 61.3848)" fill="#FF5C5C"/>
<path fill-rule="evenodd" clip-rule="evenodd" d="M29.143 57L32.8573 57L32.8573 40.5542L39.018 55.8025L42.4618 54.4111L36.1415 38.7678L48.0717 50.698L50.6981 48.0716L39.2635 36.637L54.0819 43.1113L55.5689 39.7077L39.8894 32.8572L57.0001 32.8571L57.0001 29.1428L39.8894 29.1428L55.5689 22.2923L54.0819 18.8887L39.2636 25.3629L50.6981 13.9284L48.0717 11.3021L36.1415 23.2322L42.4618 7.58881L39.018 6.19755L32.8573 21.4458L32.8573 4.99999L29.1429 4.99999L29.1429 21.4458L22.9822 6.19755L19.5385 7.58881L25.8586 23.2322L13.9285 11.3021L11.3023 13.9284L22.7368 25.3629L7.91837 18.8887L6.43143 22.2923L22.1107 29.1428L5.00013 29.1428L5.00013 32.8572L22.111 32.8572L6.43143 39.7077L7.91837 43.1113L22.7368 36.637L11.3023 48.0716L13.9285 50.698L25.8586 38.7678L19.5386 54.4111L22.9823 55.8025L29.1429 40.5542L29.143 57Z" fill="#E5E5E5"/>
</svg>
