<svg width="140" height="42" viewBox="0 0 140 42" fill="none" xmlns="http://www.w3.org/2000/svg">
<mask id="mask0_33_30" style="mask-type:luminance" maskUnits="userSpaceOnUse" x="1" y="0" width="139" height="41">
<path d="M139.769 0H1V41H139.769V0Z" fill="white"/>
</mask>
<g mask="url(#mask0_33_30)">
<path d="M48.3529 25.501L44.9738 19.1483H43.0815V25.501H38.2156V6.30762H46.2354C48.5332 6.30762 50.2903 6.89333 51.4617 8.10981C52.6782 9.3263 53.2639 10.8131 53.2639 12.6604C53.2639 15.0933 52.1376 17.256 49.7496 18.3823L53.8947 25.501H48.3529ZM43.0815 10.723V14.8681H46.0101C49.1189 15.0032 48.8936 10.4977 46.1903 10.723H43.0815Z" fill="black"/>
<path d="M69.709 19.8243H59.4815C60.0221 21.3111 61.1485 22.077 62.9958 22.077C64.5727 22.077 66.0144 21.6265 67.321 20.7704L69.1232 23.8792C67.276 25.1858 65.1584 25.8617 62.7705 25.8617C60.2024 25.8617 58.265 25.1408 56.9133 23.699C55.5166 22.2573 54.8408 20.4551 54.8408 18.3825C54.8408 16.2199 55.5617 14.4177 56.9584 13.021C58.4002 11.5792 60.2474 10.8584 62.5002 10.8584C64.6177 10.8584 66.3749 11.4891 67.7716 12.7957C69.1683 14.0573 69.8441 15.8144 69.8441 18.0221C69.8441 18.5627 69.7991 19.1485 69.709 19.8243ZM59.3914 16.6704H65.4738C65.0683 15.2737 64.032 14.4627 62.5002 14.4627C60.9232 14.4627 59.887 15.1836 59.3914 16.6704Z" fill="black"/>
<path fill-rule="evenodd" clip-rule="evenodd" d="M94.219 12.3006C95.3904 13.2918 95.9762 14.7786 95.9762 16.761V25.5017H91.3806V17.6621C91.3806 15.8599 90.3893 14.9588 88.9926 14.9588C87.4157 14.9588 86.3344 16.0401 86.3344 17.7973V25.5017H81.7838V17.6621C81.7838 15.9951 80.7926 14.9588 79.3058 14.9588C77.819 14.9588 76.6926 16.0401 76.6926 17.7973V25.5017H72.1421V11.1742H76.6025V13.1566C77.4135 11.6698 79.2157 10.7236 81.063 10.7236C83.0003 10.7687 84.3069 11.5346 85.0278 13.1116C86.1091 11.5346 88.0014 10.7236 90.074 10.7236C91.6509 10.7236 93.0476 11.2643 94.219 12.3006Z" fill="black"/>
<path fill-rule="evenodd" clip-rule="evenodd" d="M120.846 12.3006C122.018 13.2918 122.604 14.7786 122.604 16.761V25.5017H118.008V17.6621C118.008 15.8599 117.017 14.9588 115.62 14.9588C114.043 14.9588 112.962 16.0401 112.962 17.7973V25.5017H108.411V17.6621C108.411 15.9951 107.42 14.9588 105.933 14.9588C104.446 14.9588 103.32 16.0401 103.32 17.7973V25.5017H98.7695V11.1742H103.23V13.1566C104.041 11.6698 105.843 10.7236 107.69 10.7236C109.628 10.7687 110.934 11.5346 111.655 13.1116C112.737 11.5346 114.629 10.7236 116.701 10.7236C118.278 10.7236 119.675 11.2643 120.846 12.3006Z" fill="black"/>
<path d="M139.544 19.8243H129.317C129.857 21.3111 130.984 22.077 132.831 22.077C134.408 22.077 135.85 21.6265 137.156 20.7704L138.958 23.8792C137.111 25.1858 134.994 25.8617 132.606 25.8617C130.038 25.8617 128.1 25.1408 126.749 23.699C125.352 22.2573 124.676 20.4551 124.676 18.3825C124.676 16.2199 125.397 14.4177 126.794 13.021C128.19 11.6243 130.083 10.8584 132.335 10.8584C134.453 10.8584 136.21 11.4891 137.607 12.7957C139.003 14.1023 139.679 15.8144 139.679 18.0221C139.679 18.5627 139.634 19.1485 139.544 19.8243ZM129.272 16.6704H135.354C134.949 15.2737 133.912 14.4627 132.38 14.4627C130.758 14.4627 129.767 15.1836 129.272 16.6704Z" fill="black"/>
<path fill-rule="evenodd" clip-rule="evenodd" d="M31.1418 29.0155L29.2495 24.5551L24.699 26.4924L22.3111 20.8155C24.699 18.6078 26.0957 15.499 26.0957 12.1199C26.0957 5.58699 20.7792 0.270508 14.2462 0.270508C7.71328 0.270508 2.39679 5.58699 2.39679 12.1199C2.39679 15.499 3.7935 18.6078 6.22646 20.8606L1.13525 32.665L5.59569 34.5573L7.44295 30.1419L12.0386 32.0793L13.9309 27.6188L9.38031 25.6815L12.2638 19.1034L10.5067 17.9771C8.47921 16.6705 7.26273 14.4628 7.26273 12.0749C7.26273 8.24523 10.3715 5.09138 14.2462 5.09138C18.121 5.09138 21.2298 8.20017 21.2298 12.0749C21.2298 14.4628 20.0133 16.6705 18.0309 17.932L16.3188 19.0584L23.3023 35.3683L27.7627 33.476L26.6364 30.9078L31.1418 29.0155Z" fill="#533A75"/>
<path fill-rule="evenodd" clip-rule="evenodd" d="M8.34414 40.9555L3.74854 39.0182L5.64084 34.5127L10.2364 36.45L8.34414 40.9555Z" fill="#657CBD"/>
</g>
</svg>
