<svg width="170" height="60" viewBox="0 0 170 60" fill="none" xmlns="http://www.w3.org/2000/svg">
<g clip-path="url(#clip0_50_76)">
<mask id="mask0_50_76" style="mask-type:luminance" maskUnits="userSpaceOnUse" x="3" y="7" width="163" height="45">
<path d="M166 7H3V52H166V7Z" fill="white"/>
</mask>
<g mask="url(#mask0_50_76)">
<path d="M53.7568 27.9891C53.7568 35.192 58.3982 40.2141 64.8298 40.2141C71.2614 40.2141 75.9027 35.192 75.9027 27.9891C75.9027 20.7863 71.2614 15.7642 64.8298 15.7642C58.3982 15.7642 53.7568 20.7863 53.7568 27.9891ZM71.6592 27.9891C71.6592 33.1434 68.8412 36.4805 64.8298 36.4805C60.8183 36.4805 58.0003 33.1434 58.0003 27.9891C58.0003 22.8348 60.8183 19.4977 64.8298 19.4977C68.8412 19.4977 71.6592 22.8348 71.6592 27.9891Z" fill="white"/>
<path d="M87.853 40.2145C92.7265 40.2145 95.5113 36.1174 95.5113 31.1944C95.5113 26.2714 92.7265 22.1743 87.853 22.1743C85.5987 22.1743 83.9409 23.0664 82.8469 24.355V22.5047H78.8687V45.7983H82.8469V38.0338C83.9409 39.3224 85.5987 40.2145 87.853 40.2145ZM82.7475 30.6988C82.7475 27.4278 84.6041 25.6436 87.0574 25.6436C89.9416 25.6436 91.4997 27.8904 91.4997 31.1944C91.4997 34.4985 89.9416 36.7452 87.0574 36.7452C84.6041 36.7452 82.7475 34.928 82.7475 31.7231V30.6988Z" fill="white"/>
<path d="M106.277 40.2145C109.758 40.2145 112.51 38.3972 113.736 35.3575L110.322 34.0689C109.791 35.8531 108.233 36.8443 106.277 36.8443C103.724 36.8443 101.934 35.0271 101.636 32.0535H113.836V30.7318C113.836 25.974 111.15 22.1743 106.111 22.1743C101.072 22.1743 97.8232 26.1062 97.8232 31.1944C97.8232 36.547 101.304 40.2145 106.277 40.2145ZM106.078 25.5114C108.598 25.5114 109.791 27.1635 109.824 29.0798H101.835C102.431 26.7339 104.023 25.5114 106.078 25.5114Z" fill="white"/>
<path d="M116.821 39.851H120.799V29.6745C120.799 27.1965 122.623 25.8749 124.413 25.8749C126.601 25.8749 127.463 27.4278 127.463 29.5754V39.851H131.441V28.419C131.441 24.6854 129.253 22.1743 125.606 22.1743C123.352 22.1743 121.794 23.1986 120.799 24.355V22.5047H116.821V39.851Z" fill="white"/>
<path d="M143.093 16.1279L134.075 39.8511H138.286L140.308 34.4324H150.585L152.641 39.8511H156.918L147.9 16.1279H143.093ZM145.414 20.8197L149.193 30.7319H141.701L145.414 20.8197Z" fill="white"/>
<path d="M163.747 16.1968H159.503V39.9199H163.747V16.1968Z" fill="white"/>
<path d="M44.0348 24.8408C45.0376 21.841 44.6923 18.5548 43.0885 15.8262C40.6767 11.6411 35.8281 9.48793 31.0928 10.5012C28.9863 8.13602 25.9597 6.79099 22.7867 6.81026C17.9465 6.79925 13.6518 9.90506 12.1628 14.4949C9.05333 15.1296 6.36936 17.0694 4.79876 19.8186C2.36895 23.9928 2.92288 29.2545 6.16906 32.8339C5.1662 35.8337 5.51154 39.1198 7.11529 41.8484C9.52714 46.0335 14.3757 48.1867 19.111 47.1734C21.2161 49.5386 24.2441 50.8836 27.417 50.863C32.2601 50.8754 36.5561 47.7668 38.0452 43.1728C41.1546 42.5381 43.8386 40.5984 45.4092 37.8491C47.8362 33.675 47.2809 28.4174 44.0361 24.838L44.0348 24.8408ZM27.4198 47.9843C25.4818 47.9871 23.6045 47.3111 22.1168 46.0735C22.1845 46.0377 22.3019 45.973 22.3779 45.9262L31.1799 40.8599C31.6302 40.6053 31.9065 40.1276 31.9037 39.6113V27.2445L35.6237 29.3852C35.6637 29.4045 35.69 29.4431 35.6955 29.4871V39.7283C35.69 44.2824 31.9893 47.9747 27.4198 47.9843ZM9.62245 40.4084C8.65136 38.7371 8.30188 36.7781 8.63478 34.8769C8.69971 34.9154 8.81436 34.9856 8.89586 35.0324L17.6978 40.0986C18.144 40.3588 18.6965 40.3588 19.1441 40.0986L29.8897 33.9146V38.1961C29.8924 38.2401 29.8717 38.2828 29.8372 38.3103L20.9399 43.4302C16.9768 45.7045 11.9155 44.3526 9.62383 40.4084H9.62245ZM7.30592 21.26C8.27287 19.586 9.79927 18.3057 11.6171 17.6407C11.6171 17.7164 11.613 17.85 11.613 17.9436V28.0774C11.6102 28.5923 11.8865 29.07 12.3354 29.3247L23.081 35.5074L19.361 37.6481C19.3237 37.6729 19.2767 37.677 19.2353 37.6591L10.3366 32.5351C6.38179 30.2526 5.0253 25.2098 7.30454 21.2614L7.30592 21.26ZM37.8698 28.3486L27.1242 22.1645L30.8442 20.0251C30.8815 20.0004 30.9284 19.9962 30.9699 20.0141L39.8686 25.134C43.8303 27.4152 45.1882 32.4663 42.8993 36.4146C41.9309 38.0859 40.4059 39.3662 38.5895 40.0326V29.5959C38.5936 29.081 38.3187 28.6047 37.8711 28.3486H37.8698ZM41.5718 22.795C41.5069 22.7551 41.3922 22.6863 41.3107 22.6395L32.5087 17.5733C32.0625 17.3131 31.51 17.3131 31.0624 17.5733L20.3169 23.7573V19.4758C20.3141 19.4318 20.3348 19.3891 20.3694 19.3616L29.2667 14.2458C33.2298 11.9673 38.2966 13.3234 40.5814 17.2745C41.5469 18.9431 41.8964 20.8966 41.569 22.795H41.5718ZM18.2946 30.426L14.5732 28.2853C14.5331 28.266 14.5069 28.2275 14.5014 28.1834V17.9422C14.5041 13.3826 18.2158 9.68755 22.7909 9.6903C24.7262 9.6903 26.5993 10.3676 28.087 11.6011C28.0193 11.6369 27.9033 11.7016 27.8259 11.7484L19.0239 16.8147C18.5736 17.0694 18.2973 17.5457 18.3001 18.062L18.2946 30.4233V30.426ZM20.3155 26.084L25.1019 23.3292L29.8883 26.0826V31.5907L25.1019 34.3441L20.3155 31.5907V26.084Z" fill="white"/>
</g>
</g>
<defs>
<clipPath id="clip0_50_76">
<rect width="163" height="45" fill="white" transform="translate(3 7)"/>
</clipPath>
</defs>
</svg>
