<svg width="148" height="52" viewBox="0 0 148 52" fill="none" xmlns="http://www.w3.org/2000/svg">
<g opacity="0.6">
<path d="M24.5777 34.7064L22.51 39.4314C21.715 41.2476 19.1961 41.2476 18.4012 39.4314L16.3335 34.7064C14.4929 30.5015 11.1809 27.154 7.04926 25.3248L1.35727 22.8044C-0.452422 22.0031 -0.452422 19.3769 1.35727 18.5755L6.87089 16.1333C11.1087 14.2568 14.4806 10.7855 16.289 6.43721L18.3839 1.40143C19.161 -0.467143 21.749 -0.467143 22.5267 1.40143L24.6215 6.43721C26.43 10.7855 29.8018 14.2568 34.0396 16.1333L39.5539 18.5755C41.3636 19.3769 41.3636 22.0031 39.5539 22.8044L33.8619 25.3254C29.7296 27.154 26.4176 30.5015 24.5777 34.7064Z" fill="white"/>
<path d="M43.7942 49.6057L43.2127 50.9357C42.7869 51.9094 41.4358 51.9094 41.0105 50.9357L40.4291 49.6057C39.3928 47.2349 37.5251 45.3473 35.1957 44.3145L33.4039 43.5205C32.4349 43.091 32.4349 41.6858 33.4039 41.2568L35.0957 40.5072C37.4856 39.448 39.386 37.4902 40.405 35.0387L41.0019 33.6016C41.4179 32.6002 42.806 32.6002 43.222 33.6016L43.8195 35.0387C44.8385 37.4902 46.7389 39.448 49.1288 40.5072L50.8206 41.2568C51.7896 41.6864 51.7896 43.0916 50.8206 43.5205L49.0288 44.3145C46.6976 45.3466 44.8305 47.2349 43.7942 49.6057Z" fill="white"/>
<path d="M58.6348 42.3303V8.47321H70.9168C73.6042 8.47321 75.912 9.35579 77.8402 11.121C79.769 12.8547 80.7331 15.0458 80.7331 17.6936C80.7331 21.035 79.1999 23.3836 76.1329 24.7395V24.9284C77.8716 25.4959 79.2629 26.4887 80.306 27.9073C81.3491 29.2946 81.8706 30.8862 81.8706 32.6834C81.8706 35.4573 80.859 37.7586 78.8357 39.5871C76.8755 41.4157 74.4572 42.3297 71.5803 42.3297H58.6348V42.3303ZM62.9979 12.6344V22.9903H70.9174C72.4667 22.9903 73.7628 22.4703 74.8059 21.4301C75.849 20.3586 76.3706 19.1449 76.3706 17.789C76.3706 16.4651 75.8644 15.2668 74.8528 14.1952C73.8412 13.1551 72.5926 12.635 71.1063 12.635H62.9979V12.6344ZM62.9979 27.0567V38.1691H71.771C73.3517 38.1691 74.6954 37.6176 75.8021 36.5141C76.8767 35.4105 77.4143 34.1027 77.4143 32.5892C77.4143 31.1078 76.8613 29.8153 75.7546 28.7117C74.6479 27.6082 73.2573 27.0567 71.5816 27.0567H62.9979ZM89.2093 35.2376C89.2093 36.3725 89.6834 37.3185 90.632 38.0749C91.6122 38.8313 92.7503 39.2098 94.0465 39.2098C95.8803 39.2098 97.5085 38.5322 98.9306 37.1763C100.385 35.8204 101.112 34.2288 101.112 32.4003C99.7521 31.3281 97.8554 30.7927 95.421 30.7927C93.6509 30.7927 92.1646 31.2179 90.9635 32.0691C89.7945 32.9203 89.2093 33.9765 89.2093 35.2376ZM94.8526 18.4032C98.0769 18.4032 100.622 19.2704 102.488 21.0042C104.353 22.7066 105.285 25.0552 105.285 28.0501V42.3309H101.112V39.1157H100.922C99.12 41.7634 96.7178 43.0879 93.7144 43.0879C91.1536 43.0879 89.0038 42.3315 87.2651 40.8181C85.5579 39.3046 84.7043 37.4133 84.7043 35.1434C84.7043 32.7474 85.6054 30.84 87.4071 29.422C89.2408 28.0033 91.6751 27.2943 94.71 27.2943C97.3023 27.2943 99.4367 27.767 101.112 28.713V27.7202C101.112 26.2068 100.511 24.9303 99.3095 23.8901C98.1084 22.8186 96.7012 22.2825 95.089 22.2825C92.6547 22.2825 90.7265 23.3073 89.3038 25.3562L85.4628 22.9448C87.5817 19.9167 90.711 18.4032 94.8526 18.4032ZM114.568 42.3303H110.206V19.1596H114.379V22.9423H114.568C115.011 21.7126 115.912 20.6725 117.271 19.8213C118.662 18.9387 120.022 18.4974 121.349 18.4974C122.614 18.4974 123.689 18.6863 124.574 19.0648L123.246 23.2734C122.708 23.0525 121.855 22.9423 120.685 22.9423C119.041 22.9423 117.603 23.6046 116.369 24.9284C115.168 26.2523 114.567 27.7972 114.567 29.5623V42.3303H114.568ZM136.43 39.1151C138.58 39.1151 140.335 38.3426 141.694 36.7978C143.117 35.253 143.828 33.2355 143.828 30.7453C143.828 28.3178 143.117 26.3157 141.694 24.7401C140.303 23.1639 138.549 22.3755 136.43 22.3755C134.344 22.3755 132.589 23.1639 131.167 24.7401C129.744 26.3163 129.033 28.3185 129.033 30.7453C129.033 33.2041 129.744 35.2062 131.167 36.7504C132.589 38.3266 134.344 39.1151 136.43 39.1151ZM135.719 43.0867C132.684 43.0867 130.075 41.889 127.894 39.493C125.744 37.0655 124.67 34.1494 124.67 30.7446C124.67 27.3399 125.745 24.4238 127.894 21.9963C130.075 19.6003 132.684 18.4026 135.719 18.4026C137.426 18.4026 138.975 18.7651 140.366 19.4901C141.788 20.2152 142.879 21.1765 143.638 22.3749H143.827L143.638 19.1596V8.47321H148V42.3303H143.827V39.1151H143.638C142.879 40.3128 141.788 41.2747 140.366 41.9998C138.975 42.7242 137.426 43.0867 135.719 43.0867Z" fill="white"/>
</g>
</svg>
