<svg width="182" height="56" viewBox="0 0 182 56" fill="none" xmlns="http://www.w3.org/2000/svg">
<g opacity="0.6">
<g clip-path="url(#clip0_604_3149)">
<path d="M43.808 0.819336H11.192C5.01081 0.819336 0 5.87127 0 12.1031V44.5355C0 50.7674 5.01081 55.8193 11.192 55.8193H43.808C49.9892 55.8193 55 50.7674 55 44.5355V12.1031C55 5.87127 49.9892 0.819336 43.808 0.819336Z" fill="white"/>
<path d="M34.231 16.9098H29.5724L38.0535 39.7287L42.7122 39.7291L34.231 16.9098ZM20.7683 16.9098L12.2871 39.7291H17.0411L18.7525 34.9372L27.652 34.9368L29.3822 39.7291H34.1362L25.6363 16.9098H20.7683ZM20.3116 30.6964L23.2024 22.6719L26.1117 30.6964H20.3116Z" fill="#2B2B2D"/>
</g>
<path d="M101.497 15.096C101.497 15.0705 101.487 15.0462 101.469 15.0281C101.451 15.0101 101.426 15 101.4 15H97.1393C97.1137 15 97.0891 15.0101 97.0711 15.0281C97.0529 15.0462 97.0428 15.0705 97.0428 15.096V39.7076C97.0428 39.7331 97.0529 39.7576 97.0711 39.7756C97.0891 39.7938 97.1137 39.8038 97.1393 39.8038H101.4C101.426 39.8038 101.451 39.7938 101.469 39.7756C101.487 39.7576 101.497 39.7331 101.497 39.7076V15.096Z" fill="white"/>
<path d="M157.443 37.7908L157.467 39.5875C157.468 39.6447 157.492 39.6991 157.533 39.7392C157.574 39.7793 157.629 39.8017 157.686 39.8017L161.57 39.8149C161.628 39.8149 161.684 39.7917 161.725 39.7508C161.766 39.7097 161.789 39.6543 161.789 39.5962V15.2646C161.789 15.2069 161.766 15.1516 161.725 15.1107C161.684 15.0697 161.629 15.0465 161.57 15.0459L157.627 15.0262C157.568 15.0262 157.512 15.0492 157.47 15.0903C157.429 15.1312 157.406 15.1868 157.406 15.2449V24.5014C157.406 24.8352 157.283 24.8883 157.037 24.6609C156.97 24.5983 156.907 24.532 156.849 24.4622C156.075 23.5442 154.885 22.9824 153.76 22.6566C150.308 21.6491 146.582 23.0872 144.773 26.0599C141.152 32.0073 144.537 40.8924 152.48 40.1076C154.39 39.9183 155.941 39.1095 157.134 37.6814C157.335 37.4397 157.438 37.476 157.443 37.7908Z" fill="white"/>
<path d="M82.4006 15.5091C68.8872 16.7245 67.5983 36.6651 80.4345 39.8453C84.266 40.7939 88.4833 40.1055 91.6025 37.5853C93.1412 36.3424 94.1956 34.6979 94.7654 32.652C94.7745 32.6196 94.7761 32.5856 94.7697 32.5523C94.7636 32.5193 94.7497 32.4881 94.7292 32.4613C94.709 32.4344 94.6825 32.4125 94.6523 32.3974C94.6221 32.3825 94.5888 32.3746 94.5551 32.3745H90.3466C90.3102 32.3745 90.2745 32.3834 90.2427 32.4006C90.2109 32.4178 90.184 32.4426 90.1646 32.4727C88.3949 35.1395 85.9239 36.2965 82.7513 35.9438C73.7906 34.9492 74.3562 19.6774 83.5317 19.708C86.3739 19.7167 88.5498 20.8818 90.0593 23.203C90.0787 23.2339 90.1057 23.2592 90.138 23.2767C90.1701 23.2943 90.2065 23.3035 90.2436 23.3035H94.5594C94.5936 23.3035 94.6271 23.2955 94.6576 23.2804C94.688 23.2652 94.7146 23.2433 94.7352 23.2162C94.7558 23.1892 94.7697 23.1577 94.7763 23.1243C94.7826 23.0909 94.7812 23.0565 94.7721 23.0238C94.1101 20.7245 92.7826 18.8979 90.7892 17.5441C88.2116 15.7933 85.2589 15.2513 82.4006 15.5091Z" fill="white"/>
<path d="M168.464 32.0728L181.567 32.0356C181.625 32.0356 181.68 32.0132 181.722 31.9731C181.761 31.9331 181.785 31.8786 181.787 31.8215C181.804 30.7533 181.708 29.7777 181.495 28.8947C180.303 23.9134 175.46 21.4391 170.598 22.5211C165.608 23.6314 162.848 28.5341 164.034 33.4127C165.08 37.7077 168.414 40.0661 172.713 40.2671C175.259 40.3853 177.884 39.6398 179.718 38.0115C180.636 37.1939 181.243 36.1973 181.536 35.0213C181.545 34.9893 181.545 34.9559 181.538 34.9237C181.531 34.8915 181.517 34.8612 181.497 34.8351C181.478 34.809 181.452 34.7878 181.421 34.7732C181.392 34.7585 181.359 34.7506 181.327 34.7503L177.464 34.7132C177.433 34.7132 177.402 34.7197 177.374 34.732C177.345 34.7445 177.321 34.7626 177.3 34.7854C175.522 36.7546 172.646 37.2094 170.429 35.8039C169.252 35.0564 168.525 33.8979 168.249 32.3286C168.243 32.2974 168.245 32.2654 168.253 32.2347C168.261 32.2041 168.276 32.1757 168.296 32.1512C168.317 32.1269 168.342 32.1072 168.371 32.0937C168.4 32.0801 168.432 32.073 168.464 32.0728Z" fill="white"/>
<path d="M117.337 37.9329L117.352 39.5897C117.353 39.6472 117.376 39.7023 117.417 39.7427C117.458 39.7833 117.513 39.8061 117.571 39.8061H121.567C121.625 39.8061 121.681 39.783 121.722 39.7421C121.763 39.701 121.786 39.6455 121.786 39.5875V22.9844C121.786 22.9269 121.763 22.8716 121.723 22.8307C121.682 22.7898 121.627 22.7665 121.569 22.766L117.569 22.7376C117.54 22.7372 117.511 22.7427 117.484 22.7535C117.457 22.7644 117.433 22.7804 117.412 22.8007C117.392 22.8211 117.376 22.8453 117.364 22.872C117.353 22.8987 117.348 22.9273 117.348 22.956L117.345 24.5998C117.345 24.9086 117.244 24.9473 117.041 24.7157C116.653 24.2784 116.213 23.8865 115.719 23.5397C113.799 22.1911 111.05 22.0599 108.93 22.8161C100.307 25.896 102.394 41.1153 112.402 40.1447C114.271 39.9641 115.814 39.1882 117.03 37.817C117.231 37.5896 117.334 37.6283 117.337 37.9329Z" fill="white"/>
<path d="M124.673 32.8771C125.022 42.5731 140.863 42.6541 141.512 33.4083C141.655 31.3609 141.679 27.8848 141.584 22.9801C141.583 22.9234 141.56 22.8693 141.52 22.8293C141.479 22.7892 141.424 22.7664 141.367 22.7659L137.358 22.733C137.3 22.7325 137.245 22.755 137.204 22.7955C137.163 22.8361 137.139 22.8914 137.139 22.9494C137.115 24.8379 137.126 26.7818 137.169 28.7811C137.233 31.6269 137.487 35.4104 134.044 36.0595C130.714 36.689 129.088 34.5121 129.086 31.3908C129.083 28.5873 129.077 25.7822 129.068 22.9756C129.068 22.9178 129.045 22.8621 129.004 22.8212C128.963 22.7801 128.907 22.7572 128.849 22.7572H124.846C124.789 22.757 124.734 22.7793 124.693 22.8188C124.653 22.8584 124.629 22.9123 124.627 22.9691C124.539 26.2784 124.555 29.581 124.673 32.8771Z" fill="white"/>
<path d="M152.684 36.3569C153.315 36.3557 153.94 36.2233 154.523 35.9674C155.105 35.7112 155.635 35.3365 156.08 34.8644C156.526 34.3924 156.879 33.8322 157.119 33.2161C157.36 32.5999 157.483 31.9397 157.482 31.2732C157.481 30.6067 157.355 29.9468 157.112 29.3315C156.87 28.7162 156.515 28.1574 156.068 27.6869C155.62 27.2163 155.09 26.8434 154.506 26.5893C153.923 26.3354 153.297 26.2051 152.666 26.2063C152.035 26.2073 151.41 26.3397 150.827 26.5958C150.244 26.8518 149.715 27.2265 149.27 27.6987C148.824 28.1707 148.471 28.7308 148.23 29.3471C147.99 29.9633 147.867 30.6235 147.868 31.29C147.869 31.9565 147.995 32.6161 148.237 33.2315C148.48 33.8468 148.835 34.4058 149.282 34.8763C149.729 35.3467 150.26 35.7196 150.844 35.9737C151.427 36.2278 152.053 36.3579 152.684 36.3569Z" fill="#2B2B2D"/>
<path d="M168.696 28.9407L176.778 28.9276C176.813 28.9276 176.847 28.9193 176.878 28.9036C176.909 28.888 176.935 28.8652 176.955 28.8373C176.976 28.8094 176.99 28.7771 176.995 28.743C177 28.7089 176.997 28.674 176.986 28.6413C176.674 27.6882 176.159 26.9778 175.443 26.5101C173.034 24.9408 169.477 25.7823 168.488 28.65C168.477 28.6832 168.474 28.7187 168.479 28.7534C168.484 28.788 168.497 28.8211 168.518 28.8495C168.538 28.8779 168.565 28.901 168.596 28.9168C168.627 28.9327 168.661 28.9409 168.696 28.9407Z" fill="#2B2B2D"/>
<path d="M112.662 36.3544C113.903 36.3675 115.098 35.8454 115.985 34.9033C116.873 33.9611 117.379 32.6759 117.393 31.3305C117.407 29.9852 116.928 28.6897 116.061 27.7292C115.194 26.7687 114.009 26.2217 112.769 26.2089C111.528 26.1958 110.333 26.7179 109.446 27.66C108.559 28.6023 108.052 29.8874 108.038 31.2328C108.024 32.5783 108.503 33.8736 109.371 34.8341C110.238 35.7946 111.422 36.3416 112.662 36.3544Z" fill="#2B2B2D"/>
<path d="M101.4 15H97.1393C97.0861 15 97.0428 15.043 97.0428 15.096V39.7076C97.0428 39.7607 97.0861 39.8038 97.1393 39.8038H101.4C101.454 39.8038 101.497 39.7607 101.497 39.7076V15.096C101.497 15.043 101.454 15 101.4 15Z" fill="white"/>
<path d="M157.443 37.7908C157.438 37.476 157.335 37.4395 157.134 37.6814C155.941 39.1095 154.39 39.9183 152.48 40.1076C144.537 40.8923 141.152 32.0073 144.773 26.0599C146.582 23.0872 150.308 21.6491 153.76 22.6566C154.885 22.9823 156.075 23.544 156.849 24.462C156.907 24.532 156.97 24.5983 157.037 24.6609C157.283 24.8883 157.406 24.8351 157.406 24.5014V15.2447C157.406 15.1868 157.429 15.1312 157.47 15.0903C157.512 15.0492 157.568 15.0262 157.627 15.0262L161.57 15.0459C161.629 15.0465 161.684 15.0697 161.725 15.1107C161.766 15.1516 161.789 15.2069 161.789 15.2644V39.5962C161.789 39.6541 161.766 39.7097 161.725 39.7508C161.684 39.7917 161.628 39.8147 161.57 39.8147L157.686 39.8017C157.629 39.8017 157.574 39.7793 157.533 39.7392C157.492 39.6991 157.468 39.6447 157.467 39.5875L157.443 37.7908ZM152.684 36.357C153.315 36.3558 153.94 36.2234 154.523 35.9673C155.106 35.7114 155.635 35.3366 156.081 34.8644C156.526 34.3924 156.879 33.8324 157.12 33.2162C157.36 32.6 157.483 31.9397 157.482 31.2731C157.481 30.6068 157.356 29.947 157.113 29.3317C156.87 28.7163 156.515 28.1573 156.068 27.6869C155.621 27.2164 155.09 26.8435 154.507 26.5894C153.923 26.3354 153.298 26.2052 152.666 26.2063C152.035 26.2075 151.41 26.3398 150.827 26.5958C150.245 26.8519 149.716 27.2267 149.27 27.6987C148.824 28.1709 148.471 28.7309 148.231 29.3471C147.99 29.9632 147.867 30.6234 147.868 31.2899C147.869 31.9564 147.995 32.6163 148.238 33.2316C148.48 33.8469 148.835 34.4057 149.283 34.8764C149.73 35.3469 150.26 35.7198 150.844 35.9738C151.427 36.2279 152.053 36.358 152.684 36.357Z" fill="white"/>
<path d="M80.4345 39.8453C67.5983 36.6651 68.8872 16.7245 82.4006 15.5091C85.2589 15.2513 88.2116 15.7933 90.7892 17.5441C92.7826 18.8979 94.1101 20.7245 94.7721 23.0238C94.7812 23.0565 94.7826 23.0909 94.7763 23.1243C94.7697 23.1577 94.7558 23.1892 94.7352 23.2162C94.7146 23.2433 94.688 23.2652 94.6576 23.2804C94.6271 23.2955 94.5936 23.3035 94.5594 23.3035H90.2436C90.2065 23.3035 90.1701 23.2943 90.138 23.2767C90.1057 23.2592 90.0787 23.2339 90.0593 23.203C88.5498 20.8818 86.3739 19.7167 83.5317 19.708C74.3562 19.6774 73.7906 34.9492 82.7513 35.9438C85.9239 36.2965 88.3949 35.1395 90.1646 32.4727C90.184 32.4426 90.2109 32.4178 90.2427 32.4006C90.2745 32.3834 90.3102 32.3745 90.3466 32.3745H94.5551C94.5888 32.3746 94.6221 32.3825 94.6523 32.3974C94.6825 32.4125 94.709 32.4344 94.7292 32.4613C94.7497 32.4881 94.7636 32.5193 94.7697 32.5523C94.7761 32.5856 94.7745 32.6196 94.7654 32.652C94.1956 34.6979 93.1412 36.3424 91.6025 37.5853C88.4833 40.1055 84.266 40.7939 80.4345 39.8453Z" fill="white"/>
<path d="M168.249 32.3286C168.525 33.8979 169.252 35.0564 170.429 35.8039C172.646 37.2094 175.522 36.7546 177.3 34.7854C177.321 34.7626 177.345 34.7445 177.374 34.732C177.402 34.7197 177.433 34.7132 177.464 34.7132L181.327 34.7503C181.359 34.7506 181.392 34.7585 181.421 34.7732C181.452 34.7878 181.478 34.809 181.497 34.8351C181.517 34.8612 181.531 34.8915 181.538 34.9237C181.545 34.9559 181.545 34.9893 181.536 35.0213C181.243 36.1973 180.636 37.1939 179.718 38.0115C177.884 39.6398 175.259 40.3853 172.713 40.2671C168.414 40.0661 165.08 37.7077 164.034 33.4127C162.848 28.5341 165.608 23.6314 170.598 22.5211C175.46 21.4391 180.303 23.9134 181.495 28.8947C181.708 29.7777 181.804 30.7533 181.787 31.8215C181.785 31.8786 181.761 31.9331 181.722 31.9731C181.68 32.0132 181.625 32.0356 181.567 32.0356L168.464 32.0728C168.432 32.073 168.4 32.0801 168.371 32.0937C168.342 32.1072 168.317 32.1269 168.296 32.1512C168.276 32.1757 168.261 32.2041 168.253 32.2347C168.245 32.2654 168.243 32.2974 168.249 32.3286ZM168.696 28.9405L176.779 28.9275C176.813 28.9275 176.847 28.9193 176.878 28.9036C176.909 28.888 176.935 28.8652 176.955 28.8373C176.976 28.8094 176.99 28.777 176.995 28.743C177 28.7089 176.997 28.674 176.986 28.6411C176.674 27.6882 176.159 26.9778 175.443 26.5101C173.034 24.9406 169.477 25.7823 168.488 28.65C168.477 28.6832 168.474 28.7187 168.479 28.7534C168.484 28.788 168.497 28.821 168.518 28.8495C168.538 28.8779 168.565 28.901 168.596 28.9167C168.627 28.9327 168.661 28.9409 168.696 28.9405Z" fill="white"/>
<path d="M117.03 37.817C115.814 39.1882 114.271 39.9641 112.402 40.1447C102.394 41.1153 100.307 25.896 108.93 22.8161C111.05 22.0599 113.799 22.1911 115.719 23.5397C116.213 23.8865 116.653 24.2784 117.041 24.7157C117.244 24.9473 117.345 24.9086 117.345 24.5998L117.348 22.956C117.348 22.9273 117.353 22.8987 117.364 22.872C117.376 22.8453 117.392 22.8211 117.412 22.8007C117.433 22.7804 117.457 22.7644 117.484 22.7535C117.511 22.7427 117.54 22.7372 117.569 22.7376L121.569 22.766C121.627 22.7665 121.682 22.7898 121.723 22.8307C121.763 22.8716 121.786 22.9269 121.786 22.9844V39.5875C121.786 39.6455 121.763 39.701 121.722 39.7421C121.681 39.783 121.625 39.8061 121.567 39.8061H117.571C117.513 39.8061 117.458 39.7833 117.417 39.7427C117.376 39.7023 117.353 39.6472 117.352 39.5897L117.337 37.9329C117.334 37.6283 117.231 37.5896 117.03 37.817ZM112.663 36.3544C113.903 36.3674 115.098 35.8454 115.986 34.9032C116.873 33.9611 117.379 32.6758 117.393 31.3305C117.407 29.9851 116.928 28.6896 116.061 27.7291C115.194 26.7686 114.01 26.2218 112.769 26.2088C111.529 26.1958 110.333 26.7178 109.446 27.6599C108.559 28.6023 108.053 29.8874 108.038 31.2327C108.024 32.5782 108.504 33.8736 109.371 34.8341C110.238 35.7945 111.422 36.3415 112.663 36.3544Z" fill="white"/>
<path d="M141.512 33.4083C140.863 42.6541 125.022 42.5731 124.673 32.8771C124.555 29.581 124.539 26.2784 124.627 22.9691C124.629 22.9123 124.653 22.8584 124.693 22.8188C124.734 22.7793 124.789 22.757 124.846 22.7572H128.849C128.907 22.7572 128.963 22.7801 129.004 22.8212C129.045 22.8621 129.068 22.9178 129.068 22.9756C129.077 25.7822 129.083 28.5873 129.086 31.3908C129.088 34.5121 130.714 36.689 134.044 36.0595C137.487 35.4104 137.233 31.6269 137.169 28.7811C137.126 26.7818 137.115 24.8379 137.139 22.9494C137.139 22.8914 137.163 22.8361 137.204 22.7955C137.245 22.755 137.3 22.7325 137.358 22.733L141.367 22.7659C141.424 22.7664 141.479 22.7892 141.52 22.8293C141.56 22.8693 141.583 22.9234 141.584 22.9801C141.679 27.8848 141.655 31.3609 141.512 33.4083Z" fill="white"/>
</g>
<defs>
<clipPath id="clip0_604_3149">
<rect y="0.819336" width="55" height="55" fill="white"/>
</clipPath>
</defs>
</svg>
