<svg width="71" height="71" viewBox="0 0 71 71" fill="none" xmlns="http://www.w3.org/2000/svg">
<rect width="70.0162" height="70.0162" rx="9.33549" fill="#FF5C5C"/>
<g clip-path="url(#clip0_989_678)">
<path d="M25.6726 42.3744V38.0567C25.6726 37.5925 25.4882 37.1473 25.1599 36.819C24.8317 36.4908 24.3864 36.3063 23.9222 36.3063H23.3387V34.4392H23.9222C24.1521 34.4392 24.3797 34.394 24.5921 34.306C24.8044 34.218 24.9974 34.0891 25.1599 33.9266C25.3225 33.764 25.4514 33.5711 25.5394 33.3587C25.6273 33.1463 25.6726 32.9187 25.6726 32.6888V28.3712C25.6726 27.4427 26.0415 26.5523 26.698 25.8957C27.3545 25.2392 28.245 24.8704 29.1734 24.8704H30.3404V27.2042H29.1734C28.8639 27.2042 28.5671 27.3272 28.3483 27.546C28.1294 27.7649 28.0065 28.0617 28.0065 28.3712V33.1556C28.0066 33.6469 27.8517 34.1257 27.5638 34.5238C27.2759 34.9219 26.8697 35.219 26.4031 35.3728C26.8697 35.5266 27.2759 35.8237 27.5638 36.2218C27.8517 36.6199 28.0066 37.0987 28.0065 37.59V42.3744C28.0065 42.6839 28.1294 42.9807 28.3483 43.1996C28.5671 43.4184 28.8639 43.5413 29.1734 43.5413H30.3404V45.8752H29.1734C28.245 45.8752 27.3545 45.5064 26.698 44.8499C26.0415 44.1933 25.6726 43.3029 25.6726 42.3744ZM44.3436 38.0567V42.3744C44.3436 43.3029 43.9748 44.1933 43.3182 44.8499C42.6617 45.5064 41.7713 45.8752 40.8428 45.8752H39.6759V43.5413H40.8428C41.1523 43.5413 41.4491 43.4184 41.6679 43.1996C41.8868 42.9807 42.0097 42.6839 42.0097 42.3744V37.59C42.0096 37.0987 42.1645 36.6199 42.4524 36.2218C42.7403 35.8237 43.1465 35.5266 43.6131 35.3728C43.1465 35.219 42.7403 34.9219 42.4524 34.5238C42.1645 34.1257 42.0096 33.6469 42.0097 33.1556V28.3712C42.0097 28.0617 41.8868 27.7649 41.6679 27.546C41.4491 27.3272 41.1523 27.2042 40.8428 27.2042H39.6759V24.8704H40.8428C41.7713 24.8704 42.6617 25.2392 43.3182 25.8957C43.9748 26.5523 44.3436 27.4427 44.3436 28.3712V32.6888C44.3436 33.1531 44.528 33.5983 44.8563 33.9266C45.1846 34.2548 45.6298 34.4392 46.094 34.4392H46.6775V36.3063H46.094C45.6298 36.3063 45.1846 36.4908 44.8563 36.819C44.528 37.1473 44.3436 37.5925 44.3436 38.0567Z" fill="white"/>
</g>
<defs>
<clipPath id="clip0_989_678">
<rect width="28.0065" height="28.0065" fill="white" transform="translate(21.0049 21.3696)"/>
</clipPath>
</defs>
</svg>
