<svg width="71" height="71" viewBox="0 0 71 71" fill="none" xmlns="http://www.w3.org/2000/svg">
<rect width="70.0162" height="70.0162" rx="9.33549" fill="#FF5C5C"/>
<g clip-path="url(#clip0_989_733)">
<path d="M44.0037 38.629C44.7609 36.8299 44.9352 34.8388 44.5021 32.9355C44.069 31.0323 43.0503 29.3126 41.5892 28.0183C40.1282 26.724 38.2982 25.9202 36.3566 25.7198C34.415 25.5194 32.4594 25.9326 30.7648 26.9013L29.6072 24.8743C31.3782 23.8621 33.3837 23.332 35.4235 23.3369C37.4633 23.3419 39.4662 23.8816 41.2323 24.9023C46.4718 27.927 48.4789 34.4035 46.0365 39.8041L47.6026 40.7073L42.7423 43.2909L42.5497 37.79L44.0037 38.629ZM26.7914 31.387C26.0342 33.186 25.8599 35.1772 26.293 37.0804C26.7261 38.9837 27.7448 40.7033 29.2059 41.9976C30.667 43.2919 32.4969 44.0958 34.4385 44.2961C36.3801 44.4965 38.3357 44.0833 40.0303 43.1147L41.1879 45.1417C39.4169 46.1538 37.4115 46.6839 35.3717 46.679C33.3318 46.6741 31.329 46.1344 29.5629 45.1136C24.3233 42.0889 22.3162 35.6124 24.7586 30.2119L23.1914 29.3098L28.0517 26.7262L28.2442 32.2272L26.7902 31.3881L26.7914 31.387Z" fill="white"/>
</g>
<defs>
<clipPath id="clip0_989_733">
<rect width="28.0065" height="28.0065" fill="white" transform="translate(21.3938 21.0046)"/>
</clipPath>
</defs>
</svg>
