<svg width="27" height="27" viewBox="0 0 27 27" fill="none" xmlns="http://www.w3.org/2000/svg">
<g clip-path="url(#clip0_1218_839)">
<path d="M13.4999 4.07715C19.1868 4.07715 23.9181 8.16934 24.9106 13.5693C23.9192 18.9693 19.1868 23.0615 13.4999 23.0615C7.81302 23.0615 3.08169 18.9693 2.08923 13.5693C3.08064 8.16934 7.81302 4.07715 13.4999 4.07715ZM13.4999 20.9521C15.6509 20.9517 17.738 20.2211 19.4197 18.8799C21.1014 17.5387 22.278 15.6663 22.7569 13.5693C22.2762 11.474 21.0989 9.60372 19.4174 8.26429C17.7359 6.92485 15.6497 6.19552 13.4999 6.19552C11.3501 6.19552 9.26395 6.92485 7.58244 8.26429C5.90094 9.60372 4.7236 11.474 4.24291 13.5693C4.72183 15.6663 5.89842 17.5387 7.58009 18.8799C9.26176 20.2211 11.3489 20.9517 13.4999 20.9521ZM13.4999 18.3154C12.2412 18.3154 11.034 17.8154 10.1439 16.9253C9.25384 16.0353 8.7538 14.8281 8.7538 13.5693C8.7538 12.3106 9.25384 11.1034 10.1439 10.2133C11.034 9.32328 12.2412 8.82324 13.4999 8.82324C14.7586 8.82324 15.9658 9.32328 16.8559 10.2133C17.746 11.1034 18.246 12.3106 18.246 13.5693C18.246 14.8281 17.746 16.0353 16.8559 16.9253C15.9658 17.8154 14.7586 18.3154 13.4999 18.3154ZM13.4999 16.2061C14.1992 16.2061 14.8699 15.9283 15.3643 15.4338C15.8588 14.9393 16.1366 14.2686 16.1366 13.5693C16.1366 12.87 15.8588 12.1994 15.3643 11.7049C14.8699 11.2104 14.1992 10.9326 13.4999 10.9326C12.8006 10.9326 12.1299 11.2104 11.6355 11.7049C11.141 12.1994 10.8632 12.87 10.8632 13.5693C10.8632 14.2686 11.141 14.9393 11.6355 15.4338C12.1299 15.9283 12.8006 16.2061 13.4999 16.2061Z" fill="white"/>
</g>
<defs>
<clipPath id="clip0_1218_839">
<rect width="25.3125" height="25.3125" fill="white" transform="translate(0.84375 0.913086)"/>
</clipPath>
</defs>
</svg>
