<svg width="71" height="71" viewBox="0 0 71 71" fill="none" xmlns="http://www.w3.org/2000/svg">
<rect width="70.0162" height="70.0162" rx="9.33549" fill="#FF5C5C"/>
<path d="M38.7833 28.5389L38.7834 28.5389L39.64 28.753V29.1637L38.7834 29.3778L38.7833 29.3778C37.96 29.5837 37.2082 30.0095 36.6081 30.6096C36.008 31.2096 35.5823 31.9615 35.3764 32.7848L35.3764 32.7849L35.1622 33.6414H34.7516L34.5374 32.7849L34.5374 32.7848C34.3315 31.9615 33.9058 31.2096 33.3057 30.6096C32.7056 30.0095 31.9537 29.5837 31.1304 29.3778L31.1304 29.3778L30.2738 29.1637V28.753L31.1304 28.5389L31.1309 28.5387C31.9538 28.3325 32.7052 27.9065 33.3048 27.3065C33.9044 26.7065 34.3297 25.955 34.5355 25.1321C34.5355 25.132 34.5355 25.1319 34.5355 25.1318L34.7507 24.2752H35.1622L35.3764 25.1318L35.3764 25.1319C35.5823 25.9552 36.008 26.707 36.6081 27.3071C37.2082 27.9072 37.96 28.333 38.7833 28.5389Z" stroke="white" stroke-width="1.87324"/>
<path d="M30.6455 41.0679L30.6456 41.0679L31.5022 41.2821V41.6927L30.6456 41.9069L30.6455 41.9069C29.8222 42.1128 29.0704 42.5385 28.4703 43.1386C27.8702 43.7387 27.4445 44.4906 27.2386 45.3138L27.2385 45.3139L27.0244 46.1705H26.6137L26.3996 45.3139L26.3996 45.3138C26.1937 44.4906 25.7679 43.7387 25.1678 43.1386C24.5678 42.5385 23.8159 42.1128 22.9926 41.9069L22.9925 41.9069L22.136 41.6927V41.2821L22.9925 41.0679L22.9931 41.0678C23.816 40.8615 24.5673 40.4356 25.167 39.8355C25.7666 39.2356 26.1919 38.484 26.3976 37.6612C26.3977 37.6611 26.3977 37.6609 26.3977 37.6608L26.6129 36.8043H27.0244L27.2385 37.6609L27.2386 37.6609C27.4445 38.4842 27.8702 39.2361 28.4703 39.8362C29.0704 40.4363 29.8222 40.862 30.6455 41.0679Z" stroke="white" stroke-width="1.87324"/>
<path d="M47.1361 41.0679L47.1362 41.0679L47.9928 41.2821V41.6927L47.1362 41.9069L47.1361 41.9069C46.3128 42.1128 45.561 42.5385 44.9609 43.1386C44.3608 43.7387 43.9351 44.4906 43.7292 45.3138L43.7291 45.3139L43.515 46.1705H43.1043L42.8902 45.3139L42.8902 45.3138C42.6843 44.4906 42.2585 43.7387 41.6585 43.1386C41.0584 42.5385 40.3065 42.1128 39.4832 41.9069L39.4831 41.9069L38.6266 41.6927V41.2821L39.4831 41.0679L39.4837 41.0678C40.3066 40.8615 41.0579 40.4356 41.6576 39.8355C42.2572 39.2356 42.6825 38.484 42.8882 37.6612C42.8883 37.6611 42.8883 37.6609 42.8883 37.6608L43.1035 36.8043H43.515L43.7291 37.6609L43.7292 37.6609C43.9351 38.4842 44.3608 39.2361 44.9609 39.8362C45.561 40.4363 46.3128 40.862 47.1361 41.0679Z" stroke="white" stroke-width="1.87324"/>
</svg>
