<svg width="27" height="27" viewBox="0 0 27 27" fill="none" xmlns="http://www.w3.org/2000/svg">
<g clip-path="url(#clip0_1218_828)">
<path d="M13.4999 24.1162C7.67484 24.1162 2.953 19.3944 2.953 13.5693C2.953 8.84645 6.05695 4.84918 10.3358 3.50551V5.74566C8.52273 6.48188 7.02177 7.8252 6.08971 9.54583C5.15764 11.2665 4.85237 13.2575 5.22612 15.1783C5.59987 17.0991 6.62942 18.8304 8.13865 20.076C9.64788 21.3217 11.543 22.0042 13.4999 22.0068C15.1808 22.0068 16.8235 21.5048 18.2173 20.5653C19.6112 19.6258 20.6928 18.2915 21.3235 16.7334H23.5637C22.22 21.0123 18.2228 24.1162 13.4999 24.1162ZM23.994 14.624H12.4452V3.0752C12.7922 3.04039 13.1444 3.02246 13.4999 3.02246C19.3249 3.02246 24.0468 7.7443 24.0468 13.5693C24.0468 13.9248 24.0288 14.277 23.994 14.624ZM14.5546 5.19723V12.5146H21.872C21.6372 10.6559 20.7908 8.92801 19.466 7.60322C18.1412 6.27842 16.4133 5.43198 14.5546 5.19723Z" fill="white"/>
</g>
<defs>
<clipPath id="clip0_1218_828">
<rect width="25.3125" height="25.3125" fill="white" transform="translate(0.84375 0.912842)"/>
</clipPath>
</defs>
</svg>
