<svg width="82" height="31" viewBox="0 0 82 31" fill="none" xmlns="http://www.w3.org/2000/svg">
<g clip-path="url(#clip0_989_643)">
<path d="M0.73462 17.6668L0.734619 3.38551L15.0254 3.3855L0.73462 17.6668Z" fill="#3291E6"/>
<path d="M15.0255 3.38672V17.668H0.734741L15.0255 3.38672Z" fill="#122861"/>
<path d="M24.0348 3.3855H15.0254V17.6668H24.0348V3.3855Z" fill="#3291E6"/>
<path d="M15.025 17.6667H0.734253V26.6702H15.025V17.6667Z" fill="#CE5619"/>
<path d="M24.0348 17.6667H15.0254V26.6702H24.0348V17.6667Z" fill="#F39C12"/>
<path fill-rule="evenodd" clip-rule="evenodd" d="M44.9051 0.725342L28.609 23.0682H41.636V29.6143H44.9051V0.725342ZM41.6458 10.1272V19.7704H34.8734L41.6458 10.1272Z" fill="#1E1E23"/>
<path fill-rule="evenodd" clip-rule="evenodd" d="M48.1644 23.0212H51.4237V8.21118H48.1644V23.0212Z" fill="#1E1E23"/>
<path fill-rule="evenodd" clip-rule="evenodd" d="M69.8926 8.21118V23.0212H81.1186V20.1283H73.2128V16.9356H80.1414V14.1963H73.2128V11.0066H81.0027V8.21118H69.8926Z" fill="#1E1E23"/>
<path fill-rule="evenodd" clip-rule="evenodd" d="M57.942 15.4356H61.2408C62.0304 15.4356 62.6437 15.238 63.0806 14.8425C63.5176 14.4472 63.7361 13.9188 63.7361 13.2575C63.7361 12.553 63.5107 12.0175 63.0595 11.6508C62.6083 11.2843 61.9811 11.1009 61.1774 11.1009H57.942V15.4356ZM54.6827 23.0212V8.21118H61.3868C63.2444 8.21118 64.6689 8.71187 65.6605 9.71335C66.4985 10.5596 66.9176 11.7021 66.9176 13.1408C66.9176 15.4116 65.87 16.9421 63.7751 17.7319L67.3575 23.0212H63.5865L60.4021 18.282H57.9091V23.0212H54.6827Z" fill="#1E1E23"/>
</g>
<defs>
<clipPath id="clip0_989_643">
<rect width="81.9501" height="29.4508" fill="white" transform="translate(0 0.725342)"/>
</clipPath>
</defs>
</svg>
