<svg width="140" height="42" viewBox="0 0 140 42" fill="none" xmlns="http://www.w3.org/2000/svg">
<mask id="mask0_33_32" style="mask-type:luminance" maskUnits="userSpaceOnUse" x="29" y="6" width="82" height="30">
<path d="M110.95 6H29V35.4508H110.95V6Z" fill="white"/>
</mask>
<g mask="url(#mask0_33_32)">
<path d="M29.7346 22.9415L29.7346 8.66017L44.0254 8.66016L29.7346 22.9415Z" fill="#3291E6"/>
<path d="M44.0255 8.66113V22.9424H29.7347L44.0255 8.66113Z" fill="#122861"/>
<path d="M53.0348 8.66016H44.0254V22.9415H53.0348V8.66016Z" fill="#3291E6"/>
<path d="M44.025 22.9414H29.7343V31.9449H44.025V22.9414Z" fill="#CE5619"/>
<path d="M53.0348 22.9414H44.0254V31.9449H53.0348V22.9414Z" fill="#F39C12"/>
<path fill-rule="evenodd" clip-rule="evenodd" d="M73.9051 6L57.609 28.3429H70.636V34.889H73.9051V6ZM70.6458 15.4019V25.0451H63.8734L70.6458 15.4019Z" fill="#1E1E23"/>
<path fill-rule="evenodd" clip-rule="evenodd" d="M77.1644 28.2954H80.4237V13.4854H77.1644V28.2954Z" fill="#1E1E23"/>
<path fill-rule="evenodd" clip-rule="evenodd" d="M98.8926 13.4854V28.2954H110.119V25.4025H102.213V22.2098H109.141V19.4705H102.213V16.2808H110.003V13.4854H98.8926Z" fill="#1E1E23"/>
<path fill-rule="evenodd" clip-rule="evenodd" d="M86.942 20.7098H90.2408C91.0304 20.7098 91.6437 20.5122 92.0806 20.1167C92.5176 19.7214 92.7361 19.193 92.7361 18.5317C92.7361 17.8272 92.5107 17.2917 92.0595 16.925C91.6083 16.5585 90.9811 16.3751 90.1774 16.3751H86.942V20.7098ZM83.6827 28.2954V13.4854H90.3868C92.2444 13.4854 93.6689 13.986 94.6605 14.9875C95.4985 15.8338 95.9176 16.9763 95.9176 18.415C95.9176 20.6858 94.87 22.2163 92.7751 23.0061L96.3575 28.2954H92.5865L89.4021 23.5562H86.9091V28.2954H83.6827Z" fill="#1E1E23"/>
</g>
</svg>
