<svg width="895" height="385" viewBox="0 0 895 385" fill="none" xmlns="http://www.w3.org/2000/svg">
<path d="M103 0H21.5C6.3 0 0.833333 14.6667 0 22V103C0 119 14 123.667 21 124H68H94C113.2 124 117.333 140 117 148V156.5V316.5V364C117 379.2 130.667 384.333 137.5 385H166H391.5H695H872.5C888.9 385 894.333 370.333 895 363V156V104C895 86.8 879.667 82.8333 872 83H828.5H491.5H397H277H144C128 83 124 68.3333 124 61C123.833 52.6667 123.5 32.5 123.5 18.5C123.5 4.5 109.833 0.333333 103 0Z" fill="black"/>
</svg>
