<svg width="309" height="422" viewBox="0 0 309 422" fill="none" xmlns="http://www.w3.org/2000/svg">
<path fill-rule="evenodd" clip-rule="evenodd" d="M91.035 78.8168C106.358 31.8224 150.328 0.00121443 199.822 0.00121443C232.143 -0.14819 263.001 13.4939 284.636 37.5176L284.81 37.4534C333.17 27.2265 382.713 49.395 407.46 92.2579C423.75 120.174 427.364 153.719 417.377 184.468L417.519 184.586C450.556 221.353 456.129 275.343 431.382 318.206C415.351 346.272 388.108 366.174 356.485 372.899L356.453 373.081C341.13 420.076 297.16 451.897 247.666 451.897C215.345 452.046 184.488 438.404 162.852 414.381L162.678 414.445C114.318 424.672 64.7755 402.503 40.0286 359.641C23.7386 331.724 20.1242 298.18 30.1116 267.431L29.9693 267.313C-3.06748 230.545 -8.64044 176.555 16.1065 133.693C32.1377 105.627 59.3809 85.7244 91.0038 78.9994L91.035 78.8168ZM115.299 214.976L115.282 114.347C115.271 104.608 116.973 94.991 120.218 85.887L119.93 85.8175C131.579 52.9748 162.934 29.4318 199.822 29.3727L199.672 29.5227C219.503 29.5227 238.567 36.3342 253.855 48.9463L161.468 102.286C160.43 102.886 159.486 103.59 158.646 104.382C155.603 107.138 153.853 111.119 153.853 115.387V237.198L115.299 214.976ZM85.5107 111.371V218.05C85.5107 219.25 85.649 220.419 85.9154 221.543C86.7802 225.556 89.3531 229.062 93.0491 231.196L198.54 292.102L160.018 314.379L72.8625 264.079C64.4229 259.22 56.9456 252.936 50.6833 245.575L50.4792 245.789C27.8613 219.28 23.1499 180.354 41.5429 148.378L41.5978 148.583C51.5135 131.409 66.9444 118.305 85.5107 111.371ZM223.744 277.645L178.975 251.797V200.101L223.744 174.254L268.514 200.101V251.797L223.744 277.645ZM55.3997 288.374L147.787 341.713C148.825 342.313 149.906 342.777 151.011 343.108C154.92 344.367 159.244 343.893 162.941 341.758L268.432 280.853L268.463 325.352L181.324 375.681C172.897 380.56 163.716 383.894 154.21 385.637L154.294 385.921C120.027 392.254 83.9604 376.872 65.465 344.955L65.6699 345.01C55.7543 327.835 52.1212 307.92 55.3997 288.374ZM247.816 422.375C227.985 422.375 208.921 415.564 193.633 402.952L286.02 349.613C287.063 349.011 288.009 348.304 288.851 347.508C291.889 344.753 293.636 340.775 293.636 336.511V214.7L332.189 236.922L332.206 337.552C332.218 347.29 330.515 356.907 327.271 366.011L327.559 366.081C315.909 398.923 284.555 422.466 247.666 422.525L247.816 422.375ZM361.978 340.527V233.848C361.978 232.646 361.839 231.475 361.572 230.35C360.706 226.339 358.134 222.835 354.439 220.702L248.948 159.797L287.47 137.52L374.626 187.82C383.066 192.679 390.543 198.962 396.805 206.324L397.009 206.109C419.627 232.619 424.339 271.544 405.946 303.52L405.891 303.315C395.975 320.49 380.544 333.594 361.978 340.527ZM381.819 106.889C391.734 124.063 395.367 143.979 392.089 163.525L299.702 110.185C298.664 109.586 297.583 109.121 296.478 108.79C292.569 107.531 288.245 108.006 284.548 110.14L179.057 171.045L179.025 126.546L266.164 76.2171C274.592 71.3377 283.772 68.0038 293.278 66.2613L293.195 65.9771C327.462 59.6443 363.528 75.0269 382.023 106.944L381.819 106.889Z" fill="url(#paint0_linear_778_1032)"/>
<defs>
<linearGradient id="paint0_linear_778_1032" x1="223.744" y1="64.5" x2="223.744" y2="422" gradientUnits="userSpaceOnUse">
<stop stop-color="white"/>
<stop offset="1" stop-color="white" stop-opacity="0"/>
</linearGradient>
</defs>
</svg>
