<svg width="139" height="41" viewBox="0 0 139 41" fill="none" xmlns="http://www.w3.org/2000/svg">
<g clip-path="url(#clip0_888_81)">
<path d="M47.3529 25.501L43.9738 19.1483H42.0815V25.501H37.2156V6.30762H45.2354C47.5332 6.30762 49.2903 6.89333 50.4617 8.10981C51.6782 9.3263 52.2639 10.8131 52.2639 12.6604C52.2639 15.0933 51.1376 17.256 48.7496 18.3823L52.8947 25.501H47.3529ZM42.0815 10.723V14.8681H45.0101C48.1189 15.0032 47.8936 10.4977 45.1903 10.723H42.0815Z" fill="black"/>
<path d="M68.709 19.8241H58.4815C59.0221 21.3109 60.1485 22.0768 61.9958 22.0768C63.5727 22.0768 65.0144 21.6263 66.321 20.7702L68.1232 23.879C66.276 25.1856 64.1584 25.8615 61.7705 25.8615C59.2024 25.8615 57.265 25.1406 55.9133 23.6988C54.5166 22.2571 53.8408 20.4549 53.8408 18.3823C53.8408 16.2197 54.5617 14.4175 55.9584 13.0208C57.4002 11.579 59.2474 10.8582 61.5002 10.8582C63.6177 10.8582 65.3749 11.4889 66.7716 12.7955C68.1683 14.0571 68.8441 15.8142 68.8441 18.0219C68.8441 18.5625 68.7991 19.1483 68.709 19.8241ZM58.3914 16.6702H64.4738C64.0683 15.2735 63.032 14.4625 61.5002 14.4625C59.9232 14.4625 58.887 15.1834 58.3914 16.6702Z" fill="black"/>
<path fill-rule="evenodd" clip-rule="evenodd" d="M93.219 12.3001C94.3904 13.2913 94.9762 14.7781 94.9762 16.7605V25.5012H90.3806V17.6616C90.3806 15.8594 89.3893 14.9583 87.9926 14.9583C86.4157 14.9583 85.3344 16.0396 85.3344 17.7968V25.5012H80.7838V17.6616C80.7838 15.9946 79.7926 14.9583 78.3058 14.9583C76.819 14.9583 75.6926 16.0396 75.6926 17.7968V25.5012H71.1421V11.1737H75.6025V13.1561C76.4135 11.6693 78.2157 10.7231 80.063 10.7231C82.0003 10.7682 83.3069 11.5341 84.0278 13.1111C85.1091 11.5341 87.0014 10.7231 89.074 10.7231C90.6509 10.7231 92.0476 11.2638 93.219 12.3001Z" fill="black"/>
<path fill-rule="evenodd" clip-rule="evenodd" d="M119.846 12.3001C121.018 13.2913 121.604 14.7781 121.604 16.7605V25.5012H117.008V17.6616C117.008 15.8594 116.017 14.9583 114.62 14.9583C113.043 14.9583 111.962 16.0396 111.962 17.7968V25.5012H107.411V17.6616C107.411 15.9946 106.42 14.9583 104.933 14.9583C103.446 14.9583 102.32 16.0396 102.32 17.7968V25.5012H97.7695V11.1737H102.23V13.1561C103.041 11.6693 104.843 10.7231 106.69 10.7231C108.628 10.7682 109.934 11.5341 110.655 13.1111C111.737 11.5341 113.629 10.7231 115.701 10.7231C117.278 10.7231 118.675 11.2638 119.846 12.3001Z" fill="black"/>
<path d="M138.544 19.8241H128.317C128.857 21.3109 129.984 22.0768 131.831 22.0768C133.408 22.0768 134.85 21.6263 136.156 20.7702L137.958 23.879C136.111 25.1856 133.994 25.8615 131.606 25.8615C129.038 25.8615 127.1 25.1406 125.749 23.6988C124.352 22.2571 123.676 20.4549 123.676 18.3823C123.676 16.2197 124.397 14.4175 125.794 13.0208C127.19 11.6241 129.083 10.8582 131.335 10.8582C133.453 10.8582 135.21 11.4889 136.607 12.7955C138.003 14.1021 138.679 15.8142 138.679 18.0219C138.679 18.5625 138.634 19.1483 138.544 19.8241ZM128.272 16.6702H134.354C133.949 15.2735 132.912 14.4625 131.38 14.4625C129.758 14.4625 128.767 15.1834 128.272 16.6702Z" fill="black"/>
<path fill-rule="evenodd" clip-rule="evenodd" d="M30.1418 29.0153L28.2495 24.5549L23.699 26.4922L21.3111 20.8153C23.699 18.6076 25.0957 15.4988 25.0957 12.1197C25.0957 5.58675 19.7792 0.270264 13.2462 0.270264C6.71328 0.270264 1.39679 5.58675 1.39679 12.1197C1.39679 15.4988 2.7935 18.6076 5.22646 20.8604L0.135254 32.6648L4.59569 34.5571L6.44295 30.1417L11.0386 32.0791L12.9309 27.6186L8.38031 25.6813L11.2638 19.1032L9.50668 17.9769C7.47921 16.6703 6.26273 14.4626 6.26273 12.0747C6.26273 8.24499 9.37152 5.09114 13.2462 5.09114C17.121 5.09114 20.2298 8.19993 20.2298 12.0747C20.2298 14.4626 19.0133 16.6703 17.0309 17.9318L15.3188 19.0582L22.3023 35.3681L26.7627 33.4758L25.6364 30.9076L30.1418 29.0153Z" fill="#533A75"/>
<path fill-rule="evenodd" clip-rule="evenodd" d="M7.34414 40.9548L2.74854 39.0175L4.64084 34.512L9.23645 36.4493L7.34414 40.9548Z" fill="#657CBD"/>
</g>
<defs>
<clipPath id="clip0_888_81">
<rect width="138.769" height="41" fill="white"/>
</clipPath>
</defs>
</svg>
