<svg width="170" height="60" viewBox="0 0 170 60" fill="none" xmlns="http://www.w3.org/2000/svg">
<path d="M35.5811 38.6598L33.608 43.1963C32.8493 44.9401 30.4456 44.9401 29.6869 43.1963L27.7138 38.6598C25.9574 34.6226 22.7968 31.4085 18.8539 29.6523L13.4221 27.2324C11.6952 26.463 11.6952 23.9416 13.4221 23.1722L18.6837 20.8274C22.7278 19.0256 25.9456 15.6928 27.6714 11.5179L29.6704 6.68294C30.412 4.88889 32.8817 4.88889 33.6239 6.68294L35.6229 11.5179C37.3487 15.6928 40.5665 19.0256 44.6106 20.8274L49.8728 23.1722C51.5997 23.9416 51.5997 26.463 49.8728 27.2324L44.4409 29.6529C40.4976 31.4085 37.3369 34.6226 35.5811 38.6598Z" fill="#2B2B2D"/>
<path d="M53.9195 52.9653L53.3646 54.2423C52.9582 55.1771 51.6689 55.1771 51.263 54.2423L50.7082 52.9653C49.7193 50.6891 47.9369 48.8767 45.714 47.8851L44.0041 47.1228C43.0794 46.7104 43.0794 45.3613 44.0041 44.9494L45.6186 44.2296C47.8992 43.2127 49.7128 41.3329 50.6852 38.9793L51.2548 37.5995C51.6518 36.638 52.9765 36.638 53.3735 37.5995L53.9436 38.9793C54.9161 41.3329 56.7296 43.2127 59.0102 44.2296L60.6247 44.9494C61.5494 45.3619 61.5494 46.7109 60.6247 47.1228L58.9148 47.8851C56.6901 48.8761 54.9084 50.6891 53.9195 52.9653Z" fill="#2B2B2D"/>
<path d="M68.0815 45.9795V13.4727H79.8021C82.3667 13.4727 84.569 14.32 86.409 16.0148C88.2497 17.6795 89.1697 19.7832 89.1697 22.3253C89.1697 25.5335 87.7066 27.7885 84.7798 29.0903V29.2717C86.4391 29.8165 87.7667 30.7697 88.7621 32.1318C89.7575 33.4637 90.2552 34.9919 90.2552 36.7174C90.2552 39.3807 89.2899 41.5901 87.3591 43.3458C85.4884 45.1014 83.1807 45.9789 80.4353 45.9789L68.0815 45.9795ZM72.2452 17.4679V27.4109H79.8027C81.2811 27.4109 82.5181 26.9115 83.5135 25.9129C84.5089 24.8841 85.0066 23.7188 85.0066 22.4169C85.0066 21.1459 84.5236 19.9953 83.5582 18.9665C82.5929 17.9679 81.4013 17.4685 79.983 17.4685L72.2452 17.4679ZM72.2452 31.3151V41.9843H80.6173C82.1258 41.9843 83.408 41.4548 84.4641 40.3953C85.4896 39.3358 86.0026 38.08 86.0026 36.6269C86.0026 35.2046 85.4749 33.9636 84.4188 32.9041C83.3627 31.8446 82.0357 31.3151 80.4365 31.3151H72.2452ZM97.2585 39.1697C97.2585 40.2594 97.7109 41.1676 98.6162 41.8939C99.5515 42.6201 100.638 42.9835 101.874 42.9835C103.624 42.9835 105.178 42.3329 106.535 41.0311C107.923 39.7293 108.617 38.2012 108.617 36.4455C107.319 35.4161 105.509 34.902 103.186 34.902C101.497 34.902 100.079 35.3104 98.9325 36.1276C97.8169 36.9449 97.2585 37.9589 97.2585 39.1697ZM102.644 23.0067C105.721 23.0067 108.15 23.8393 109.93 25.5039C111.71 27.1384 112.6 29.3934 112.6 32.2689V45.9801H108.617V42.8931H108.436C106.716 45.4353 104.424 46.707 101.558 46.707C99.1139 46.707 97.0624 45.9807 95.4031 44.5276C93.7739 43.0745 92.9594 41.2586 92.9594 39.0793C92.9594 36.7788 93.8193 34.9475 95.5386 33.586C97.2885 32.224 99.6116 31.5432 102.508 31.5432C104.981 31.5432 107.018 31.997 108.617 32.9053V31.9521C108.617 30.499 108.044 29.2735 106.897 28.2748C105.751 27.246 104.408 26.7313 102.869 26.7313C100.546 26.7313 98.7063 27.7152 97.3486 29.6824L93.6832 27.3671C95.7053 24.4598 98.6916 23.0067 102.644 23.0067ZM121.458 45.9795H117.295V23.7329H121.277V27.3648H121.458C121.881 26.1841 122.741 25.1854 124.038 24.3682C125.365 23.5208 126.662 23.0971 127.929 23.0971C129.136 23.0971 130.162 23.2785 131.006 23.6419L129.739 27.6827C129.226 27.4705 128.412 27.3648 127.295 27.3648C125.727 27.3648 124.354 28.0006 123.177 29.2717C122.031 30.5428 121.457 32.026 121.457 33.7208L121.458 45.9795ZM142.321 42.8925C144.372 42.8925 146.047 42.1509 147.344 40.6677C148.702 39.1845 149.38 37.2474 149.38 34.8565C149.38 32.5259 148.702 30.6036 147.344 29.0909C146.016 27.5775 144.342 26.8205 142.321 26.8205C140.329 26.8205 138.655 27.5775 137.298 29.0909C135.94 30.6042 135.262 32.5265 135.262 34.8565C135.262 37.2173 135.94 39.1396 137.298 40.6222C138.655 42.1356 140.329 42.8925 142.321 42.8925ZM141.642 46.7058C138.746 46.7058 136.256 45.5558 134.175 43.2554C132.123 40.9248 131.098 38.1249 131.098 34.8559C131.098 31.5869 132.124 28.7871 134.175 26.4565C136.256 24.156 138.746 23.0061 141.642 23.0061C143.271 23.0061 144.749 23.3541 146.076 24.0503C147.434 24.7464 148.475 25.6694 149.199 26.8199H149.38L149.199 23.7329V13.4727H153.362V45.9795H149.38V42.8925H149.199C148.475 44.0425 147.434 44.9661 146.076 45.6622C144.749 46.3577 143.271 46.7058 141.642 46.7058Z" fill="#2B2B2D"/>
</svg>
