<svg width="170" height="60" viewBox="0 0 170 60" fill="none" xmlns="http://www.w3.org/2000/svg">
<path d="M26.9237 4.71443C27.4501 4.9383 27.9446 5.23019 28.3947 5.5826C29.1934 6.3968 29.965 6.6397 30.9036 5.848C30.9632 5.80322 31.0329 5.77385 31.1067 5.76253C32.6499 5.47914 33.3628 4.59747 33.3403 3.00057C33.3403 2.06042 34.0713 1.55662 35.0189 1.52963C36.0688 1.49664 37.1216 1.49664 38.1775 1.52963C39.4274 1.56561 40.0456 2.02444 40.0592 3.27047C40.0592 4.66945 40.6503 5.40267 41.9859 5.65458C42.2461 5.7043 42.4906 5.81535 42.6989 5.97846C43.3803 6.51825 43.9217 6.38331 44.5625 5.83002C46.1373 4.48052 46.6201 4.521 48.037 5.98745C48.5288 6.50026 49.0433 6.99058 49.5396 7.50339C50.609 8.61897 50.6316 9.21724 49.7562 10.4498C49.4178 10.8996 48.8537 11.5069 48.9395 11.9342C49.1724 12.9528 49.5701 13.9267 50.1172 14.8177C50.2842 15.0966 51.0197 15.0786 51.4709 15.1506C53.2036 15.4025 53.5556 15.7938 53.5646 17.5616C53.5646 18.3803 53.5646 19.2035 53.5646 20.0267C53.5421 21.4842 53.1134 22.0735 51.6604 22.1184C50.4105 22.1589 49.7246 22.5998 49.499 23.8278C49.4313 24.2237 49.1019 24.57 49.0478 24.9659C48.9442 25.3855 48.9855 25.8276 49.1651 26.2209C50.8708 28.6545 50.8888 28.641 48.7545 30.7687C48.6462 30.8722 48.5469 30.9846 48.4431 31.0926C46.4803 33.0764 46.4396 33.0943 44.206 31.385C43.6961 30.9936 43.2494 30.8362 42.6989 31.2455C42.6056 31.3077 42.5016 31.3519 42.3921 31.376C40.7992 31.7763 39.7794 32.55 39.8877 34.4213C39.9464 35.4155 39.1928 35.9418 38.173 35.9508C37.1532 35.9598 36.0703 35.9508 35.0144 35.9508C34.779 35.9751 34.5412 35.9504 34.316 35.8782C34.0908 35.806 33.8831 35.6879 33.7061 35.5314C33.5292 35.3748 33.3868 35.1833 33.2881 34.969C33.1894 34.7547 33.1364 34.5222 33.1327 34.2864C33.0846 33.9886 33.0545 33.6881 33.0425 33.3867C33.0425 32.4556 32.704 31.8033 31.6888 31.6504C31.6142 31.6397 31.5432 31.612 31.4812 31.5694C30.2854 30.7372 29.3108 30.9441 28.2639 31.9653C27.2847 32.9234 26.486 32.7885 25.5249 31.8303C24.836 31.1406 24.1576 30.4418 23.4898 29.7341C22.646 28.8344 22.6234 28.1417 23.3815 27.1566C23.4266 27.0981 23.4853 27.0486 23.5259 26.9856C23.8688 26.4638 24.5457 25.888 24.478 25.4157C24.2929 24.4653 23.9285 23.5586 23.404 22.7437C23.2506 22.4738 22.6189 22.4288 22.1902 22.3749C19.8483 22.069 19.6362 21.8395 19.6362 19.4689C19.6362 18.8347 19.6362 18.2004 19.6362 17.5661C19.6362 16.0097 20.0378 15.5779 21.5495 15.317C22.1271 15.2225 22.9934 15.2495 23.2145 14.9031C23.7413 13.9608 24.1461 12.9556 24.4193 11.9118C24.487 11.6958 24.1621 11.3225 23.9681 11.0616C22.3843 8.93833 22.3843 8.89337 24.2253 6.9546C24.6765 6.46428 25.1278 5.95596 25.6422 5.51513C26.0491 5.21727 26.4774 4.94965 26.9237 4.71443ZM36.535 24.732C38.1479 24.7562 39.7051 24.1445 40.8679 23.0299C42.0307 21.9154 42.7049 20.3883 42.744 18.7807C42.7951 17.1543 42.1965 15.5741 41.0797 14.3874C39.9628 13.2007 38.4192 12.5044 36.7877 12.4516C35.1746 12.4524 33.6262 13.0836 32.4746 14.2097C31.3231 15.3358 30.6602 16.867 30.6284 18.4748C30.6011 20.0772 31.2039 21.6265 32.3077 22.7916C33.4115 23.9567 34.9287 24.6451 36.535 24.7095V24.732Z" fill="white"/>
<path d="M112.695 49.0681C110.127 49.0681 107.731 49.0681 105.326 49.0321C105.051 49.0321 104.667 48.6047 104.536 48.2944C103.667 46.2311 102.832 44.1499 102.032 42.0507C101.964 41.7659 101.793 41.5164 101.551 41.3502C101.309 41.184 101.015 41.1131 100.723 41.151C96.4397 41.184 92.1589 41.184 87.8812 41.151C87.5899 41.1149 87.2953 41.1866 87.0533 41.3523C86.8114 41.5181 86.6387 41.7666 86.5681 42.0507C85.8191 44.0435 84.9527 45.9957 84.2307 47.9975C83.9194 48.8522 83.4682 49.1131 82.5792 49.0861C80.481 49.0186 78.3827 49.0636 76.0859 49.0636C76.2574 48.5733 76.3657 48.1999 76.5101 47.849C81.1849 36.7172 85.8477 25.5809 90.4984 14.44C90.5792 14.1391 90.7683 13.8783 91.0296 13.7074C91.2909 13.5365 91.6062 13.4674 91.9153 13.5134C93.6435 13.5628 95.3717 13.5449 97.1 13.5134C97.3565 13.4822 97.6158 13.5435 97.8309 13.6862C98.0461 13.8289 98.2029 14.0437 98.2732 14.2916C102.981 25.6004 107.704 36.8836 112.442 48.1414C112.514 48.3753 112.564 48.6272 112.695 49.0681ZM94.4602 23.2297H94.1895L89.7584 34.2416H98.8733C97.3617 30.463 95.9132 26.8464 94.4602 23.2297Z" fill="white"/>
<path d="M113.769 48.9735V13.99C113.89 13.9226 113.954 13.8551 114.012 13.8551C119.603 13.9226 125.216 13.6797 130.771 14.143C136.971 14.6558 140.829 19.2531 141.118 25.5777C141.393 31.5335 137.675 36.4187 131.868 37.8581C128.826 38.6093 125.753 38.4924 122.68 38.4429C121.588 38.4429 121.282 38.7533 121.327 39.8239C121.403 42.4374 121.349 45.0554 121.349 47.669V48.9735H113.769ZM121.34 26.086C121.34 27.62 121.309 29.1494 121.367 30.6788C121.367 30.9622 121.755 31.4705 121.963 31.475C124.285 31.5547 126.61 31.4992 128.925 31.3086C131.669 30.9937 133.352 28.8255 133.348 26.086C133.348 23.2701 131.872 21.3403 129.016 20.9849C126.687 20.6926 124.305 20.8005 121.945 20.8005C121.742 20.8005 121.376 21.3178 121.367 21.6102C121.309 23.0991 121.34 24.5926 121.34 26.086Z" fill="white"/>
<path d="M62.9277 47.4712C61.8132 47.4712 61.2672 46.8865 61.0461 45.8743C60.9378 45.384 60.8476 44.7048 60.5091 44.4934C59.8245 44.1064 59.0729 43.8516 58.2936 43.7421C58.0454 43.7017 57.6889 44.1155 57.4227 44.3584C56.1773 45.492 55.6899 45.5145 54.431 44.4619L53.6549 43.8186C52.1974 42.5996 52.1162 42.1137 53.1089 40.5033C53.8489 39.3023 52.802 37.3545 51.3761 37.2646C49.6524 37.1656 49.314 36.8372 49.1561 35.1234C49.1109 34.6735 49.0793 34.2237 49.0523 33.7739C48.9756 32.2984 49.3275 31.8306 50.767 31.5022C52.2064 31.1738 52.9464 28.8797 51.9447 27.7506C50.8437 26.5091 50.8346 26.0323 51.8815 24.7592C52.0981 24.4983 52.3057 24.2329 52.5178 23.9765C53.7632 22.4651 54.1557 22.4246 55.8253 23.4097C56.1987 23.5583 56.6131 23.5695 56.994 23.4412C57.3775 23.3423 57.6934 22.9914 58.077 22.8654C58.4192 22.7759 58.7177 22.5667 58.9182 22.2761C59.1186 21.9854 59.2076 21.6326 59.169 21.282C59.169 19.9325 59.6518 19.4827 60.9739 19.3298C61.4567 19.2668 61.9441 19.2398 62.4314 19.2083C64.0964 19.0959 64.498 19.3658 64.8274 21.0076C64.9583 21.6419 65.211 22.0108 65.8698 22.1187C66.2811 22.1715 66.6798 22.2964 67.0475 22.4876C67.6477 22.8295 68.0447 22.672 68.5185 22.2177C69.6602 21.1201 70.1971 21.1336 71.42 22.1412C71.7945 22.4471 72.169 22.762 72.5345 23.0814C73.5679 23.981 73.6626 24.6243 72.9452 25.8208C72.7628 26.1713 72.6692 26.5608 72.6725 26.9556C72.6758 27.3504 72.7759 27.7383 72.9641 28.0857C73.1524 28.433 73.423 28.7292 73.7524 28.9483C74.0817 29.1675 74.4599 29.303 74.8539 29.343C75.9278 29.397 76.5144 29.9233 76.6318 30.9804C76.6724 31.3493 76.7039 31.7226 76.7355 32.096C76.9386 34.4486 76.8935 34.4981 74.6147 35.2448C74.329 35.3726 74.0997 35.5997 73.9695 35.8836C73.789 36.2434 73.789 36.6978 73.604 37.0531C73.4185 37.3521 73.3492 37.7083 73.409 38.0547C73.4689 38.401 73.6538 38.7136 73.9288 38.9334C75.0479 40.0985 75.0163 40.5753 74.0146 41.8348L73.3738 42.6131C72.0607 44.201 71.7178 44.2819 70.0212 43.1529C69.8259 42.9818 69.5749 42.8874 69.315 42.8874C69.055 42.8874 68.804 42.9818 68.6088 43.1529C68.2067 43.345 67.8151 43.5582 67.4356 43.7916C67.0835 44.0629 66.8338 44.445 66.7271 44.8757C66.5241 46.9764 66.3571 47.1789 64.2318 47.3633C63.7896 47.3768 63.3429 47.4487 62.9277 47.4712ZM58.0454 33.1891C58.0364 33.8445 58.1582 34.4952 58.4036 35.1034C58.649 35.7115 59.0132 36.265 59.475 36.7317C59.9368 37.1983 60.487 37.5688 61.0937 37.8217C61.7004 38.0746 62.3514 38.2048 63.009 38.2047C63.6658 38.1989 64.315 38.0632 64.9188 37.8054C65.5226 37.5476 66.0692 37.1729 66.5267 36.7031C66.9842 36.2332 67.3436 35.6774 67.584 35.0681C67.8245 34.4587 67.9412 33.8078 67.9274 33.1531C67.9276 31.8524 67.4139 30.6039 66.4976 29.6779C65.5814 28.7518 64.3362 28.2227 63.0315 28.2049C62.3748 28.202 61.7239 28.3289 61.1167 28.5785C60.5095 28.8281 59.9581 29.1953 59.4943 29.6589C59.0305 30.1225 58.6636 30.6733 58.4149 31.2792C58.1662 31.8852 58.0406 32.5344 58.0454 33.1891Z" fill="white"/>
<path d="M51.2363 41.2995C51.1866 41.4479 51.1686 41.8078 50.9836 41.9922C50.248 42.7165 50.4872 43.4227 50.8256 44.2414C51.0603 44.8037 51.2769 45.168 51.9492 45.276C53.2082 45.4784 53.4879 46.0047 53.4608 47.6961C53.4338 49.2615 53.0953 49.7383 51.8635 49.9453C50.7534 50.1522 49.9999 51.875 50.6045 52.8377C51.3852 54.0747 51.2453 54.637 49.8149 55.9865C48.9395 56.8187 48.3168 56.8547 47.2248 56.1214C46.2501 55.4692 44.5489 56.1979 44.3278 57.363C44.0797 58.672 43.5969 59.0094 41.9814 58.9914C40.366 58.9734 39.8877 58.627 39.6711 57.318C39.619 57.0146 39.4925 56.7288 39.3028 56.486C39.1131 56.2432 38.8661 56.0509 38.5839 55.9262C38.3016 55.8015 37.9928 55.7484 37.6849 55.7715C37.3771 55.7945 37.0797 55.8931 36.8193 56.0585C35.795 56.7377 35.1317 56.6253 34.1706 55.6086C32.871 54.2592 32.7717 53.7418 33.5885 52.6352C33.7508 52.3906 33.8531 52.1113 33.8869 51.82C33.9208 51.5286 33.8853 51.2334 33.7833 50.9583C33.6814 50.6831 33.5158 50.4358 33.3001 50.2363C33.0843 50.0369 32.8245 49.891 32.5416 49.8103C31.1112 49.4774 30.8269 49.0771 30.845 47.3947C30.863 45.7123 31.1608 45.3615 32.6499 45.0511C33.6201 44.8442 34.333 43.0583 33.7825 42.2216C32.9522 40.9756 33.0289 40.5528 34.3195 39.2483C35.4069 38.1507 35.8717 38.0967 37.1442 38.9109C37.8301 39.3607 39.7659 38.605 39.996 37.8088C40.0988 37.421 40.2913 37.0626 40.558 36.7622C40.8248 36.4619 41.1584 36.228 41.5321 36.0794C41.9058 35.9307 42.3092 35.8714 42.7101 35.9061C43.111 35.9408 43.4981 36.0687 43.8405 36.2794C44.2197 36.5655 44.4902 36.9715 44.6076 37.4309C44.6876 37.7562 44.8426 38.0585 45.0603 38.3136C45.278 38.5688 45.5523 38.7698 45.8615 38.9008C46.1708 39.0318 46.5064 39.0892 46.8417 39.0683C47.177 39.0474 47.5029 38.9488 47.7933 38.7804C48.953 38.1597 51.2047 39.6891 51.2363 41.2995ZM42.1755 43.3462C41.1125 43.3674 40.1003 43.8033 39.3562 44.5603C38.612 45.3172 38.1954 46.3349 38.1956 47.3947C38.183 47.9286 38.2765 48.4598 38.4707 48.9575C38.665 49.4552 38.9561 49.9097 39.3273 50.2948C39.6985 50.6799 40.1424 50.988 40.6336 51.2013C41.1247 51.4146 41.6533 51.5289 42.189 51.5377C42.7238 51.5336 43.2526 51.4242 43.7449 51.2158C44.2373 51.0074 44.6834 50.7041 45.0579 50.3233C45.4323 49.9425 45.7276 49.4918 45.9267 48.9969C46.1259 48.5021 46.2251 47.9729 46.2185 47.4397C46.2287 46.9046 46.1316 46.3729 45.9328 45.8758C45.7341 45.3787 45.4377 44.9262 45.061 44.5449C44.6844 44.1635 44.2351 43.8611 43.7396 43.6552C43.2441 43.4494 42.7123 43.3443 42.1755 43.3462Z" fill="white"/>
<path d="M150.346 49.0138H142.783V13.8099H144.498C146.036 13.8099 147.58 13.8729 149.114 13.8099C150.124 13.7515 150.368 14.1023 150.368 15.074C150.332 23.9267 150.368 32.7838 150.368 41.6365L150.346 49.0138Z" fill="white"/>
</svg>
