<svg width="75" height="16" viewBox="0 0 75 16" fill="none" xmlns="http://www.w3.org/2000/svg">
<path d="M56.259 10.5689V8.07372L54.3152 5.43493L51.1245 4.42969L47.9704 5.43493L46.0083 8.07372V11.3408L47.9521 13.9796L51.1245 14.9848L54.3152 13.9796L55.7639 12.6691L54.1502 11.5382L53.0866 12.364L51.1245 12.9923L49.144 12.364L47.9337 10.7304V10.5689H56.259ZM49.1624 7.05051L51.1428 6.42223L53.1049 7.05051L54.3336 8.702V8.88151H47.9521V8.702L49.1624 7.05051Z" fill="white"/>
<path d="M44.3214 12.6513H38.7101L44.3397 5.18369V4.89648H35.0059V6.69157H40.8189L35.0242 14.231V14.4823H44.3214V12.6513Z" fill="white"/>
<path d="M30.9717 14.4823V4.89648H32.9888V14.4823H30.9717Z" fill="white"/>
<path d="M31.9665 -0.00023675L30.4883 1.44678L31.9665 2.89379L33.4447 1.44678L31.9665 -0.00023675Z" fill="white"/>
<path d="M26.847 4.91496L26.6453 5.90226L26.3152 5.45349L23.1245 4.44824L19.9704 5.45349L18.0083 8.09227V11.3593L19.9521 13.9981L23.1245 15.0034L26.3152 13.9981L26.627 13.5853L26.7737 14.5187H28.3874V4.93292L26.847 4.91496ZM26.3152 10.7311L25.0866 12.3825L23.1245 13.0108L21.144 12.3825L19.9337 10.749V8.72055L21.144 7.08703L23.1245 6.45874L25.0866 7.08703L26.3152 8.73851V10.7311Z" fill="white"/>
<path d="M13.8794 14.5011V1.46875H15.8965V14.5011H13.8794Z" fill="white"/>
<path d="M9.92064 11.9152L8.87539 12.6512H2.10882V8.48657H8.7837L9.92064 9.29436L10.3607 10.6048L9.92064 11.9152ZM11.4427 8.19936L10.3607 7.42746L10.7458 7.1582L11.461 4.98614L10.7458 2.81409L8.85705 1.46777H0V14.4822H9.35217L11.4427 12.9922L12.2312 10.5868L11.4427 8.19936ZM2.10882 3.28081H8.27025L9.18713 3.92704L9.53555 4.98614L9.18713 6.04525L8.27025 6.69148H2.10882V3.28081Z" fill="white"/>
<path opacity="0.4" d="M68.5704 15.0963L67.4227 12.091H61.5562L60.4298 15.0963H58.1343L63.4375 1.25049H65.4678L70.9007 15.0963H68.5704ZM64.4711 4.22327L62.3091 10.0569H66.6717L64.4711 4.22327Z" fill="white"/>
<path opacity="0.4" d="M72.8379 15.0963V1.25049H74.9998V15.0963H72.8379Z" fill="white"/>
</svg>
