<svg width="330" height="56" viewBox="0 0 330 56" fill="none" xmlns="http://www.w3.org/2000/svg">
<g clip-path="url(#clip0_1319_7779)">
<path d="M146.92 0.0900269H163.66C166.46 0.0900269 169.27 0.170044 172.07 0.170044C175.38 0.170044 178.69 0.170046 182 0.110046C183.88 0.110046 183.91 0.110048 183.08 1.83005C181.79 4.44005 180.51 7.04005 179.21 9.64005C177.91 12.24 176.53 15.01 175.21 17.69C173.89 20.37 172.62 22.79 171.35 25.35C169.97 28.12 168.62 30.91 167.25 33.68C166.583 35.0134 165.917 36.3467 165.25 37.68C165.202 37.7691 165.133 37.8454 165.05 37.9028C164.966 37.9602 164.87 37.9969 164.77 38.01C164.61 38.01 164.42 37.78 164.34 37.61C163 34.98 161.69 32.33 160.34 29.69C158.63 26.3 156.89 22.93 155.18 19.54C153.8 16.79 152.45 14.0301 151.09 11.2701C149.83 8.73005 148.56 6.20003 147.29 3.66003C146.92 2.91003 146.51 2.17003 146.16 1.41003C146.01 1.09003 145.79 0.620034 145.92 0.410034C146.05 0.200034 146.57 0.150039 146.92 0.0400391V0.0900269ZM164.43 5.65002H155.74C154.86 5.65002 154.69 5.88002 155.09 6.65002C155.6 7.65002 156.15 8.65002 156.65 9.65002C157.57 11.55 158.45 13.47 159.39 15.36C160.23 17.06 161.14 18.72 161.98 20.42C162.69 21.83 163.35 23.28 164.06 24.69C164.258 24.9737 164.493 25.2293 164.76 25.45C165.015 25.2193 165.24 24.9573 165.43 24.67C166.43 22.61 167.43 20.53 168.43 18.47C169.43 16.41 170.62 14.2 171.69 12.06C172.6 10.26 173.47 8.44005 174.36 6.64005C174.72 5.93005 174.54 5.64005 173.74 5.64005L164.43 5.65002Z" fill="#2B2B2D"/>
<path d="M255.22 17.63C255.22 13.75 255.22 9.86333 255.22 5.97C255.22 5.06 255.31 5.03 256.22 5.06C257.76 5.06 259.31 5.06 260.86 5.06C264 5.06 267.14 5.06 270.28 5.06C273.28 5.06 276.23 5.06 279.2 5C280.2 5 280.39 5.16 280.39 6.22C280.39 9.82 280.39 13.41 280.39 17.01C280.39 17.83 280.39 18.65 280.39 19.47C280.39 20.08 280.1 20.34 279.49 20.33C278.28 20.33 277.07 20.33 275.87 20.33C275.58 20.3686 275.297 20.4494 275.03 20.57C275.149 20.8163 275.297 21.0479 275.47 21.26C277.2 22.99 278.96 24.7 280.68 26.44C281.43 27.2 281.32 27.71 280.49 28.44C279.66 29.17 279.1 29.77 278.42 30.44C277.74 31.11 277.5 31.14 276.79 30.44C274.32 27.98 271.79 25.53 269.36 23.08C268.64 22.37 267.98 21.6 267.21 20.95C266.813 20.6207 266.324 20.4216 265.81 20.38C264.44 20.3 263.06 20.38 261.68 20.33C260.98 20.33 260.73 20.6 260.74 21.27C260.74 23.85 260.74 26.44 260.74 29.02C260.74 30.1 260.67 30.16 259.58 30.16C258.49 30.16 257.26 30.16 256.1 30.16C255.42 30.16 255.17 29.97 255.18 29.25C255.24 25.41 255.22 21.57 255.22 17.63ZM267.92 10.54C265.82 10.54 263.71 10.54 261.61 10.54C261.03 10.54 260.76 10.75 260.77 11.34C260.77 12.21 260.77 13.08 260.77 13.95C260.77 14.54 261.04 14.85 261.65 14.85H274.05C274.59 14.85 274.84 14.61 274.83 14.06C274.83 13.16 274.83 12.27 274.83 11.38C274.83 10.76 274.64 10.52 273.99 10.53C272 10.57 270 10.57 267.92 10.57V10.54Z" fill="#2B2B2D"/>
<path d="M218.59 30.1901H207.12C206.12 30.1901 206.12 30.1401 206.12 29.1901V11.4901C206.12 9.71014 206.12 7.92014 206.12 6.14014C206.12 5.43014 206.37 5.14012 207.12 5.09012C210.88 5.09012 214.65 4.94014 218.41 4.89014C219.24 4.89014 220.08 5.10012 220.92 5.09012C223.15 5.09012 225.39 4.97014 227.62 4.92014C227.98 4.92014 228.34 5.00014 228.7 5.02014C229.228 5.08156 229.76 5.09828 230.29 5.07013C231.4 4.95013 231.5 5.07011 231.49 6.18011C231.43 11.1268 231.38 16.0768 231.34 21.0301C231.34 23.7801 231.34 26.5301 231.34 29.2801C231.34 29.9801 231.07 30.2001 230.34 30.2001C226.42 30.1701 222.5 30.1901 218.59 30.1901ZM225.76 17.6401H225.7C225.7 15.5701 225.7 13.4901 225.7 11.4201C225.7 10.8701 225.5 10.6201 224.93 10.6401C224.36 10.6601 223.63 10.6401 222.98 10.6401C219.57 10.6401 216.16 10.6401 212.76 10.5701C212.14 10.5701 211.76 10.7601 211.76 11.4301C211.76 12.1001 211.76 12.7801 211.76 13.4301C211.76 16.6901 211.68 19.9401 211.66 23.2001C211.66 24.5201 211.76 24.6301 213.05 24.6301C216.99 24.6301 220.93 24.6301 224.86 24.6301C225.5 24.6301 225.72 24.3501 225.72 23.7501C225.75 21.7401 225.76 19.6901 225.76 17.6401Z" fill="#2B2B2D"/>
<path d="M74.3698 17.6298V29.1497C74.3698 30.0497 74.2398 30.1497 73.3198 30.1497H69.7598C68.8498 30.1497 68.7598 30.0497 68.7598 29.1497C68.7598 26.6397 68.7598 24.1497 68.7598 21.6197C68.7598 20.3597 68.6898 20.3198 67.4498 20.3198C63.5298 20.3198 59.6198 20.3198 55.6998 20.3198C54.9898 20.3198 54.6998 20.4997 54.6998 21.2497C54.6998 23.9097 54.6998 26.5597 54.6998 29.2497C54.6998 29.9597 54.4298 30.1998 53.7698 30.1898C52.5098 30.1898 51.2498 30.1898 49.9998 30.1898C49.3698 30.1898 49.0698 29.9698 49.0698 29.2998C49.0698 21.5264 49.0698 13.7531 49.0698 5.97976C49.0698 5.39976 49.2598 5.06975 49.8998 5.06975C57.5865 5.06975 65.2731 5.04976 72.9598 5.00976C73.1996 4.99479 73.44 4.99479 73.6798 5.00976C73.7883 5.00858 73.8957 5.03094 73.9947 5.07531C74.0937 5.11968 74.1819 5.18502 74.2532 5.26678C74.3245 5.34853 74.3772 5.44478 74.4077 5.54888C74.4382 5.65298 74.4457 5.76244 74.4298 5.86974C74.4298 9.77974 74.4298 13.6898 74.4298 17.5998L74.3698 17.6298ZM61.6298 10.5698C59.6298 10.5698 57.5698 10.5698 55.5398 10.5698C54.9198 10.5698 54.6498 10.7798 54.6798 11.4098C54.7098 12.0398 54.6798 12.9498 54.6798 13.7298C54.6798 14.7298 54.8698 14.8898 55.8798 14.8898H62.1098C63.9198 14.8898 65.7298 14.8898 67.5498 14.8898C68.4698 14.8898 68.6898 14.6398 68.7098 13.7098C68.7098 13.0098 68.7098 12.3197 68.7098 11.6197C68.7098 10.7197 68.5598 10.6197 67.6298 10.6197L61.6298 10.5698Z" fill="#2B2B2D"/>
<path d="M329.43 17.6797C329.43 21.5197 329.43 25.3598 329.43 29.1998C329.43 30.1998 329.43 30.1998 328.43 30.1998C327.2 30.1998 325.96 30.1998 324.73 30.1998C324.14 30.1998 323.92 29.9997 323.93 29.3997C323.93 26.7397 323.93 24.0897 323.93 21.3997C323.93 20.3997 323.85 20.3397 322.85 20.3397C318.85 20.3397 314.77 20.3397 310.73 20.3397C310.02 20.3397 309.73 20.5597 309.73 21.3397C309.73 23.9897 309.73 26.6497 309.73 29.3397C309.73 30.0497 309.5 30.2898 308.81 30.2598C307.58 30.2598 306.34 30.2598 305.11 30.2598C304.45 30.2598 304.22 30.0398 304.22 29.3798C304.22 23.2531 304.22 17.1231 304.22 10.9898C304.22 9.39977 304.22 7.79977 304.22 6.20977C304.22 5.31977 304.28 5.20977 305.16 5.20977C306.51 5.20977 307.86 5.14977 309.21 5.20977C311.63 5.20977 314.05 5.20977 316.46 5.20977C320.46 5.20977 324.54 5.20977 328.57 5.20977C329.32 5.20977 329.39 5.59977 329.39 6.20977C329.39 10.0898 329.39 13.9798 329.39 17.8598L329.43 17.6797ZM316.85 10.5698H310.85C309.85 10.5698 309.85 10.5698 309.85 11.5698V13.7298C309.85 14.7298 310.01 14.8898 311.05 14.8898H318.65H323C323.84 14.8898 324 14.7098 324 13.8898C324 13.0698 324 12.3398 324 11.5698C324 10.7998 323.92 10.6198 323 10.5698H316.85Z" fill="#2B2B2D"/>
<path d="M98.1899 17.6399V6.19986C98.1899 5.19986 98.3799 4.98985 99.4299 4.99985C100.98 4.99985 102.52 4.99984 104.07 5.05984C104.487 5.09427 104.878 5.27906 105.17 5.57986C106.32 6.99986 107.41 8.46986 108.51 9.91986C109.843 11.6399 111.15 13.3665 112.43 15.0999C113.88 17.0399 115.32 18.9899 116.78 20.9199C116.971 21.1226 117.19 21.2976 117.43 21.4398C117.569 21.1799 117.667 20.8999 117.72 20.6099C117.72 17.9099 117.72 15.1998 117.72 12.4998C117.72 10.2998 117.72 8.10986 117.72 5.91986C117.72 5.38986 117.95 5.06985 118.48 5.06985C119.9 5.06985 121.33 5.06985 122.75 5.12985C123.28 5.12985 123.34 5.52985 123.35 5.93985C123.35 7.79985 123.42 9.65987 123.41 11.5199C123.41 17.4065 123.38 23.2965 123.32 29.1898C123.32 30.0698 123.19 30.1898 122.32 30.1898C120.7 30.1898 119.08 30.1898 117.46 30.1898C117.248 30.2091 117.035 30.1721 116.841 30.0826C116.648 29.993 116.482 29.8541 116.36 29.6798C114.61 27.3498 112.81 25.0699 111.06 22.7399C108.89 19.8599 106.75 16.9599 104.59 14.0799C104.422 13.9229 104.229 13.7945 104.02 13.6999C103.906 13.9132 103.825 14.1424 103.78 14.3799C103.78 19.3799 103.78 24.3799 103.78 29.3799C103.78 29.8999 103.54 30.1699 103.06 30.1699C101.63 30.1699 100.2 30.1699 98.7799 30.1699C98.1799 30.1699 98.1099 29.7698 98.1099 29.2798C98.1099 25.3898 98.1099 21.5098 98.1099 17.6198L98.1899 17.6399Z" fill="#2B2B2D"/>
<path d="M0 17.65V6.13C0 5.23 0.209976 5.02002 1.09998 5.02002H19.1H24.17C25.17 5.02002 25.25 5.12002 25.26 6.02002C25.26 10.54 25.26 15.02 25.26 19.56C25.26 20.29 24.86 20.36 24.26 20.36H6.56C5.56 20.36 5.56 20.36 5.56 21.31C5.56 23.9367 5.56 26.5667 5.56 29.2C5.56 30.11 5.51 30.2 4.56 30.2H1.01001C0.0100098 30.2 0.0100098 30.11 0.0100098 29.2V17.65H0ZM12.6 10.53C10.52 10.53 8.43999 10.53 6.37 10.53C5.79999 10.53 5.58999 10.73 5.60999 11.29C5.60999 12.16 5.60999 13.03 5.60999 13.9C5.60999 14.77 5.71999 14.85 6.60999 14.85C8.31999 14.85 10.04 14.85 11.75 14.85H18.57C19.5 14.85 19.64 14.71 19.65 13.74C19.65 12.97 19.65 12.2 19.65 11.43C19.65 10.66 19.38 10.5 18.71 10.51C16.66 10.57 14.63 10.57 12.6 10.57V10.53Z" fill="#2B2B2D"/>
<path d="M26 42.9199C27.79 42.9199 29.58 42.9199 31.37 42.9199C32.02 42.9199 32.27 43.1899 32.27 43.8299C32.27 47.3499 32.27 50.8799 32.27 54.3999C32.27 55.2599 32.08 55.4499 31.27 55.4499H20.97C19.89 55.4499 19.67 55.1999 19.68 54.1199C19.68 51.9499 19.68 49.7799 19.68 47.6099C19.68 46.3299 19.68 45.0599 19.68 43.7799C19.68 43.1399 20.02 42.9399 20.59 42.9399H26V42.9199ZM26 52.6999H27.37C27.83 52.6999 28.29 52.6999 28.74 52.6999C29 52.6999 29.37 52.5699 29.47 52.3799C29.5923 52.196 29.6605 51.9814 29.6668 51.7607C29.6732 51.5399 29.6175 51.3217 29.506 51.1311C29.3945 50.9404 29.2317 50.7849 29.0362 50.6821C28.8407 50.5794 28.6203 50.5336 28.4 50.5499C26.88 50.5499 25.4 50.5499 23.85 50.5499C22.3 50.5499 22.43 50.6299 22.41 51.9399C22.41 52.5299 22.66 52.7199 23.18 52.7099L26 52.6999ZM26 47.7999H28.83C29.78 47.7999 29.51 47.0799 29.56 46.5499C29.61 46.0199 29.34 45.8299 28.83 45.8299C26.95 45.8299 25.07 45.8299 23.19 45.8299C22.46 45.8299 22.46 46.2599 22.46 46.7799C22.46 47.2999 22.41 47.7799 23.18 47.7799L26 47.7999Z" fill="#2B2B2D"/>
<path d="M65.6598 42.9199C67.4498 42.9199 69.2398 42.9199 71.0298 42.9199C71.7098 42.9199 71.9598 43.1599 71.9498 43.8599C71.9498 47.3599 71.9498 50.8599 71.9498 54.3499C71.9498 55.3499 71.8298 55.4499 70.8798 55.4499H60.4498C59.4498 55.4499 59.2798 55.2399 59.2798 54.2399C59.2798 50.8199 59.2798 47.3966 59.2798 43.9699C59.2798 43.1099 59.4098 42.9699 60.2798 42.9699C62.0898 42.9699 63.8998 42.9699 65.7098 42.9699L65.6598 42.9199ZM65.5898 52.6999H68.4898C68.8798 52.6999 69.1298 52.5699 69.1198 52.1099C69.1198 50.2799 69.1198 48.4499 69.1198 46.6199C69.1198 46.0299 68.8998 45.8199 68.3098 45.8199C66.5198 45.8199 64.7298 45.8199 62.9398 45.8199C62.2998 45.8199 62.0998 46.0299 62.1098 46.6599C62.1098 48.4399 62.1098 50.2299 62.1098 52.0099C62.1098 52.5299 62.3098 52.6999 62.7898 52.6999C63.6998 52.6899 64.6498 52.6999 65.5898 52.6999Z" fill="#2B2B2D"/>
<path d="M224.25 42.9299H229.69C230.33 42.9299 230.59 43.1699 230.58 43.8299C230.58 47.3099 230.58 50.7799 230.58 54.2499C230.58 55.3099 230.48 55.4299 229.44 55.4199C227.77 55.4199 227.77 55.4199 227.74 53.7499C227.74 52.9599 227.74 52.1599 227.74 51.3599C227.74 50.7699 227.52 50.4999 226.88 50.5099C225.16 50.5099 223.44 50.5099 221.73 50.5099C221.08 50.5099 220.8 50.7899 220.81 51.4199C220.81 52.4199 220.81 53.4199 220.81 54.4199C220.81 55.2499 220.6 55.4199 219.81 55.4199C217.98 55.4199 217.98 55.4199 217.98 53.5799C217.98 50.3532 217.98 47.1199 217.98 43.8799C217.98 43.0699 218.12 42.8799 218.98 42.8799H224.34L224.25 42.9299ZM224.39 47.7999H226.56C227.74 47.7999 227.72 47.7999 227.74 46.6099C227.74 46.0099 227.53 45.8099 226.94 45.8099C225.18 45.8099 223.42 45.8099 221.66 45.8099C220.79 45.8099 220.78 45.8699 220.75 46.9499C220.75 47.6599 221.14 47.7899 221.75 47.7899L224.39 47.7999Z" fill="#2B2B2D"/>
<path d="M309.81 49.2102V54.4302C309.81 55.3202 309.69 55.4302 308.81 55.4302C306.34 55.4302 306.37 55.4302 304.87 53.3002C303.64 51.5802 302.33 49.9202 301.05 48.2302C300.939 48.0738 300.808 47.9326 300.66 47.8102C300.54 47.7102 300.31 47.5702 300.25 47.6202C300.176 47.6743 300.114 47.743 300.067 47.8222C300.021 47.9013 299.991 47.9891 299.98 48.0802C299.98 48.6802 299.98 49.2802 299.98 49.8902C299.98 51.3402 299.98 52.7802 299.98 54.2302C299.98 55.2302 299.87 55.4202 298.79 55.4302C297.32 55.4302 297.24 55.3602 297.24 53.9102V44.2802C297.24 42.9702 297.24 43.0302 298.57 42.9002C299.205 42.7918 299.859 42.8908 300.433 43.1826C301.008 43.4744 301.473 43.9434 301.76 44.5202C302.76 46.0502 303.91 47.4202 304.99 48.8602C305.36 49.3602 305.67 49.8602 306.06 50.3802C306.26 50.5628 306.486 50.7145 306.73 50.8302C306.867 50.602 306.961 50.3514 307.01 50.0902C307.01 48.0902 307.01 45.9902 307.01 43.9402C307.01 43.1202 307.19 42.9402 308.01 42.9402C309.75 42.9402 309.75 42.9402 309.74 44.6802V49.2402L309.81 49.2102Z" fill="#2B2B2D"/>
<path d="M138.62 49.1302C138.62 47.3502 138.62 45.5602 138.62 43.7802C138.62 43.2202 138.78 42.9302 139.41 42.9302C143.06 42.9302 146.71 42.9302 150.36 42.9302C150.93 42.9302 151.23 43.1302 151.21 43.7302C151.217 43.8514 151.234 43.9717 151.26 44.0902C151.35 45.5502 151.09 45.8302 149.65 45.8402C147.21 45.8402 144.77 45.8402 142.33 45.8402C141.64 45.8402 141.39 46.0502 141.4 46.7502C141.45 48.4202 141.4 50.0802 141.4 51.7502C141.4 52.6102 141.5 52.7502 142.35 52.7502C144.92 52.7502 147.48 52.7502 150.04 52.7502C150.43 52.7502 151.14 52.9802 151.15 53.1302C151.168 53.8571 151.09 54.5833 150.92 55.2902C150.92 55.3902 150.45 55.4702 150.2 55.4702H139.54C138.81 55.4702 138.6 55.2502 138.6 54.4702C138.6 52.6802 138.6 50.9002 138.6 49.1102L138.62 49.1302Z" fill="#2B2B2D"/>
<path d="M263.83 55.4401C262.07 55.4401 260.3 55.4401 258.54 55.4401C257.87 55.4401 257.64 55.1901 257.63 54.5501C257.63 52.6801 257.58 52.6801 259.45 52.6901H261.77C262.36 52.6901 262.59 52.4101 262.59 51.8401C262.59 50.0801 262.59 48.3201 262.59 46.5601C262.59 46.0501 262.37 45.8101 261.85 45.8201C260.76 45.8201 259.68 45.8201 258.59 45.8201C257.95 45.8201 257.65 45.6201 257.66 44.9601C257.66 42.6801 257.36 42.9601 259.66 42.9601H269.09C270.09 42.9601 270.2 43.0801 270.21 44.0201C270.21 46.1801 269.97 45.8501 268.45 45.8501C267.65 45.8501 266.85 45.8501 266.05 45.8501C265.53 45.8501 265.31 46.1101 265.31 46.6101C265.31 48.3701 265.31 50.1301 265.31 51.8901C265.31 52.5001 265.63 52.7401 266.23 52.7301C267.23 52.7301 268.31 52.7301 269.35 52.7301C269.92 52.7301 270.2 52.9901 270.2 53.5601V53.7001C270.25 55.3701 270.2 55.4501 268.5 55.4601H263.86L263.83 55.4401Z" fill="#2B2B2D"/>
<path d="M190.84 49.1501V54.4301C190.84 55.3201 190.71 55.4301 189.84 55.4301C188.12 55.4301 188.12 55.4301 188.05 53.6601C188.05 52.9701 188.05 52.2701 188.05 51.5701C188.05 50.8701 187.84 50.5701 187.05 50.5701C185.36 50.5701 183.67 50.5701 181.98 50.5701C181.32 50.5701 181.06 50.8501 181.07 51.4801C181.07 52.4801 181.07 53.4801 181.07 54.4801C181.07 55.4801 180.91 55.5401 180.07 55.5301C178.34 55.5301 178.35 55.5301 178.35 53.8101C178.35 50.5301 178.35 47.2501 178.35 43.9701C178.35 43.2801 178.6 43.0301 179.27 42.9701C181.14 42.9101 181.14 42.8901 181.14 44.7601C181.14 45.5301 181.14 46.3001 181.14 47.0801C181.14 47.5901 181.34 47.8501 181.85 47.8501H187.44C188.02 47.8501 188.22 47.4801 188.2 46.9401C188.15 45.8901 188.1 44.8301 188.06 43.7801C188.055 43.7302 188.055 43.68 188.06 43.6301C188.52 42.4901 189.51 43.1201 190.27 43.0001C190.82 42.9201 190.95 43.2901 190.95 43.7701C190.95 45.5801 190.95 47.3901 190.95 49.2001L190.84 49.1501Z" fill="#2B2B2D"/>
<path d="M100.23 42.4399C100.522 42.6064 100.8 42.797 101.06 43.0099C102.25 44.1699 103.41 45.3599 104.61 46.5099C105.19 47.0699 105.49 47.0199 106.05 46.4399C107.2 45.2499 108.36 44.0799 109.52 42.8999C109.568 42.8449 109.622 42.7947 109.68 42.7499C110.18 42.4099 110.75 42.6699 111.58 43.6499C111.667 43.7353 111.734 43.8382 111.777 43.9518C111.821 44.0653 111.839 44.1868 111.832 44.3082C111.824 44.4295 111.79 44.5478 111.733 44.655C111.676 44.7623 111.597 44.856 111.5 44.9299C110.43 45.9299 109.38 47.0199 108.32 48.0699C108.168 48.225 108.048 48.4092 107.968 48.6115C107.888 48.8139 107.85 49.0302 107.856 49.2477C107.861 49.4651 107.91 49.6792 108.001 49.8772C108.091 50.0751 108.22 50.2529 108.38 50.3999C109.45 51.4699 110.54 52.53 111.6 53.61C111.75 53.75 111.94 54.0799 111.89 54.1299C111.435 54.7058 110.903 55.2171 110.31 55.6499C110.13 55.7599 109.51 55.3799 109.21 55.0999C108.09 54.0399 107.01 52.93 105.92 51.83C105.47 51.37 105.11 51.3 104.6 51.83C103.44 53.05 102.21 54.1999 101.02 55.3999C100.946 55.5052 100.848 55.5911 100.734 55.6504C100.62 55.7097 100.494 55.7406 100.365 55.7406C100.237 55.7406 100.11 55.7097 99.9959 55.6504C99.8819 55.5911 99.7839 55.5052 99.7101 55.3999C98.3801 53.9199 98.1901 54.2499 99.7101 52.8099C100.53 52.0299 101.34 51.2399 102.14 50.4399C102.45 50.1473 102.633 49.7457 102.652 49.3202C102.67 48.8947 102.523 48.4786 102.24 48.1599C101.24 47.0699 100.18 46.01 99.1001 44.99C98.6301 44.54 98.5701 44.1399 98.9801 43.6899C99.3901 43.2399 99.7701 42.8899 100.23 42.4399Z" fill="#2B2B2D"/>
</g>
<defs>
<clipPath id="clip0_1319_7779">
<rect width="329.46" height="55.75" fill="white"/>
</clipPath>
</defs>
</svg>
